<?xml version="1.0" encoding="UTF-8" standalone="no"?>
<!-- Created with Inkscape (http://www.inkscape.org/) -->

<svg
   width="500"
   height="500"
   viewBox="0 0 132.29166 132.29167"
   version="1.1"
   id="svg8"
   inkscape:version="1.1.1 (3bf5ae0d25, 2021-09-20)"
   sodipodi:docname="grapnico0004 - website button - Web services.svg"
   inkscape:export-filename="C:\Users\micha\Desktop\Office\nicollettesadventures.com  - 6.24.22 - 5.1\Graffix\grapnico0004 - website button - Web services.png"
   inkscape:export-xdpi="96"
   inkscape:export-ydpi="96"
   xmlns:inkscape="http://www.inkscape.org/namespaces/inkscape"
   xmlns:sodipodi="http://sodipodi.sourceforge.net/DTD/sodipodi-0.dtd"
   xmlns="http://www.w3.org/2000/svg"
   xmlns:svg="http://www.w3.org/2000/svg"
   xmlns:rdf="http://www.w3.org/1999/02/22-rdf-syntax-ns#"
   xmlns:cc="http://creativecommons.org/ns#"
   xmlns:dc="http://purl.org/dc/elements/1.1/">
  <defs
     id="defs2" />
  <sodipodi:namedview
     id="base"
     pagecolor="#ffffff"
     bordercolor="#666666"
     borderopacity="1.0"
     inkscape:pageopacity="0.0"
     inkscape:pageshadow="2"
     inkscape:zoom="0.49497475"
     inkscape:cx="10.101525"
     inkscape:cy="293.95439"
     inkscape:document-units="px"
     inkscape:current-layer="layer1"
     showgrid="false"
     inkscape:window-width="1360"
     inkscape:window-height="745"
     inkscape:window-x="-8"
     inkscape:window-y="-8"
     inkscape:window-maximized="1"
     units="px"
     inkscape:pagecheckerboard="0"
     showguides="true"
     inkscape:guide-bbox="true" />
  <metadata
     id="metadata5">
    <rdf:RDF>
      <cc:Work
         rdf:about="">
        <dc:format>image/svg+xml</dc:format>
        <dc:type
           rdf:resource="http://purl.org/dc/dcmitype/StillImage" />
      </cc:Work>
    </rdf:RDF>
  </metadata>
  <g
     inkscape:label="Layer 1"
     inkscape:groupmode="layer"
     id="layer1"
     transform="translate(-0.17670614,-88.946333)">
    <text
       transform="scale(1.0068664,0.99318043)"
       xml:space="preserve"
       style="font-style:normal;font-weight:normal;font-size:4.72601px;line-height:1.25;font-family:sans-serif;letter-spacing:0px;word-spacing:0px;fill:#000000;fill-opacity:1;stroke:none;stroke-width:0.11815"
       x="127.18119"
       y="153.21716"
       id="text64791" />
    <text
       xml:space="preserve"
       style="font-style:normal;font-weight:normal;font-size:4.9707px;line-height:1.25;font-family:sans-serif;letter-spacing:0px;word-spacing:0px;fill:#000000;fill-opacity:1;stroke:none;stroke-width:0.124267"
       x="85.64164"
       y="167.6972"
       id="text64811"
       transform="scale(1.0996282,0.90939829)" />
    <text
       transform="scale(1.0996282,0.90939829)"
       id="text64815"
       y="181.60826"
       x="87.559036"
       style="font-style:normal;font-weight:normal;font-size:4.9707px;line-height:1.25;font-family:sans-serif;letter-spacing:0px;word-spacing:0px;fill:#000000;fill-opacity:1;stroke:none;stroke-width:0.124267"
       xml:space="preserve" />
    <text
       id="text64821"
       y="166.34476"
       x="127.97752"
       style="font-style:normal;font-weight:normal;font-size:4.72601px;line-height:1.25;font-family:sans-serif;letter-spacing:0px;word-spacing:0px;fill:#000000;fill-opacity:1;stroke:none;stroke-width:0.11815"
       xml:space="preserve"
       transform="scale(1.0068664,0.99318043)" />
    <text
       transform="scale(1.0068664,0.99318043)"
       xml:space="preserve"
       style="font-style:normal;font-weight:normal;font-size:4.72601px;line-height:1.25;font-family:sans-serif;letter-spacing:0px;word-spacing:0px;fill:#000000;fill-opacity:1;stroke:none;stroke-width:0.11815"
       x="128.9082"
       y="193.53192"
       id="text64837" />
    <text
       xml:space="preserve"
       style="font-style:normal;font-weight:normal;font-size:4.9707px;line-height:1.25;font-family:sans-serif;letter-spacing:0px;word-spacing:0px;fill:#000000;fill-opacity:1;stroke:none;stroke-width:0.124267"
       x="88.419876"
       y="196.81204"
       id="text64841"
       transform="scale(1.0996282,0.90939829)" />
    <text
       xml:space="preserve"
       style="font-style:normal;font-weight:normal;font-size:4.9707px;line-height:1.25;font-family:sans-serif;letter-spacing:0px;word-spacing:0px;fill:#000000;fill-opacity:1;stroke:none;stroke-width:0.124267"
       x="90.260063"
       y="211.21338"
       id="text64845"
       transform="scale(1.0996282,0.90939829)" />
    <text
       id="text64909"
       y="63.516281"
       x="-103.50844"
       style="font-style:normal;font-variant:normal;font-weight:normal;font-stretch:normal;font-size:10.5833px;line-height:1.25;font-family:Frenchpress;-inkscape-font-specification:'Frenchpress, Normal';font-variant-ligatures:normal;font-variant-caps:normal;font-variant-numeric:normal;font-feature-settings:normal;text-align:start;letter-spacing:0px;word-spacing:0px;writing-mode:lr-tb;text-anchor:start;fill:#000000;fill-opacity:1;stroke:none;stroke-width:0.264583"
       xml:space="preserve" />
    <text
       id="text64917"
       y="180.09474"
       x="127.44878"
       style="font-style:normal;font-weight:normal;font-size:5.29853px;line-height:1.25;font-family:sans-serif;letter-spacing:0px;word-spacing:0px;fill:#000000;fill-opacity:1;stroke:none;stroke-width:0.132463"
       xml:space="preserve" />
    <text
       xml:space="preserve"
       style="font-style:normal;font-weight:normal;font-size:5.58591px;line-height:1.25;font-family:sans-serif;fill:#000000;fill-opacity:1;stroke:none;stroke-width:0.139648"
       x="-94.64418"
       y="212.77162"
       id="text66647"><tspan
         sodipodi:role="line"
         id="tspan66645"
         style="stroke-width:0.139648"
         x="-94.64418"
         y="212.77162" /></text>
    <g
       inkscape:label="Layer 1"
       id="layer1-05"
       transform="matrix(1.0052158,0,0,0.99211758,-0.36442277,1.9642754)">
      <path
         id="rect64757-4"
         style="opacity:1;fill:none;stroke-width:1.06812"
         d="M 0.53832114,87.673134 H 132.14356 V 221.01586 H 0.53832114 Z" />
      <g
         transform="scale(1.0068664,0.99318043)"
         id="text64791-0"
         style="font-size:4.72601px;line-height:1.25;letter-spacing:0px;word-spacing:0px;stroke-width:0.11815" />
      <g
         transform="scale(1.0996282,0.90939829)"
         id="text64811-2"
         style="font-size:4.9707px;line-height:1.25;letter-spacing:0px;word-spacing:0px;stroke-width:0.124267" />
      <g
         transform="scale(1.0996282,0.90939829)"
         id="text64815-0"
         style="font-size:4.9707px;line-height:1.25;letter-spacing:0px;word-spacing:0px;stroke-width:0.124267" />
      <g
         transform="scale(1.0068664,0.99318043)"
         id="text64821-9"
         style="font-size:4.72601px;line-height:1.25;letter-spacing:0px;word-spacing:0px;stroke-width:0.11815" />
      <g
         transform="scale(1.0068664,0.99318043)"
         id="text64837-2"
         style="font-size:4.72601px;line-height:1.25;letter-spacing:0px;word-spacing:0px;stroke-width:0.11815" />
      <g
         transform="scale(1.0996282,0.90939829)"
         id="text64841-2"
         style="font-size:4.9707px;line-height:1.25;letter-spacing:0px;word-spacing:0px;stroke-width:0.124267" />
      <g
         transform="scale(1.0996282,0.90939829)"
         id="text64845-7"
         style="font-size:4.9707px;line-height:1.25;letter-spacing:0px;word-spacing:0px;stroke-width:0.124267" />
      <g
         id="text64909-1"
         style="font-size:10.5833px;line-height:1.25;font-family:Frenchpress;-inkscape-font-specification:'Frenchpress, Normal';letter-spacing:0px;word-spacing:0px;stroke-width:0.264583" />
      <g
         id="text64917-0"
         style="font-size:5.29853px;line-height:1.25;letter-spacing:0px;word-spacing:0px;stroke-width:0.132463" />
      <path
         id="rect132634-2"
         style="stroke:#ff1952;stroke-width:2.87862"
         d="m 40.900737,94.222626 h 50.300057 c 18.873976,0 34.068546,15.194574 34.068546,34.068554 V 181.329 c 0,18.87398 -15.19457,34.06855 -34.068546,34.06855 H 40.900737 c -18.873976,0 -34.0685498,-15.19457 -34.0685498,-34.06855 v -53.03782 c 0,-18.87398 15.1945738,-34.068554 34.0685498,-34.068554 z" />
      <g
         inkscape:label="Layer 1"
         id="layer1-0"
         transform="matrix(0.7452201,0,0,0.7452201,15.454516,106.04863)">
        <path
           id="rect84135"
           style="fill:#b1afbd;stroke:#ff1952;stroke-width:2.5019"
           d="m 31.895308,-0.94080722 h 73.148282 c 16.17719,0 29.2007,13.02351122 29.2007,29.20069922 v 71.958858 c 0,16.17719 -13.02351,29.2007 -29.2007,29.2007 H 31.895308 c -16.177187,0 -29.2006991,-13.02351 -29.2006991,-29.2007 V 28.259892 c 0,-16.177188 13.0235121,-29.20069922 29.2006991,-29.20069922 z" />
        <g
           id="text63148"
           style="font-size:15.5277px;line-height:1.25;stroke-width:0.388196" />
      </g>
    </g>
    <g
       id="g26352"
       transform="matrix(7.2834044,0,0,7.2834044,1072.3464,-2189.9448)">
      <path
         style="fill:#414042;fill-opacity:1;stroke:#414042;stroke-width:0.264583px;stroke-linecap:butt;stroke-linejoin:miter;stroke-opacity:1"
         d="m -143.02902,317.81091 0.94494,0.0945 1.74814,6.42559 1.65365,-6.52009 1.03943,0.0472 1.65365,6.47284 1.6064,-6.47284 h 1.03943 l -1.88988,7.70126 -1.32292,-0.0472 -1.6064,-6.61459 -1.65364,6.66183 -1.27567,-0.0945 z"
         id="path14157" />
      <path
         id="path19672"
         style="fill:#ffffff;stroke:#414042;stroke-width:0.948157;stroke-linejoin:round;paint-order:stroke markers fill"
         d="m -141.98487,317.77847 a 0.6425572,0.72823149 0 0 1 -0.64256,0.72823 0.6425572,0.72823149 0 0 1 -0.64255,-0.72823 0.6425572,0.72823149 0 0 1 0.64255,-0.72823 0.6425572,0.72823149 0 0 1 0.64256,0.72823 z" />
      <path
         id="ellipse26254"
         style="fill:#ffffff;stroke:#414042;stroke-width:0.948157;stroke-linejoin:round;paint-order:stroke markers fill"
         d="m -139.85876,324.91278 a 0.6425572,0.72823149 0 0 1 -0.64255,0.72823 0.6425572,0.72823149 0 0 1 -0.64256,-0.72823 0.6425572,0.72823149 0 0 1 0.64256,-0.72823 0.6425572,0.72823149 0 0 1 0.64255,0.72823 z" />
      <path
         id="ellipse26256"
         style="fill:#ffffff;stroke:#414042;stroke-width:0.948157;stroke-linejoin:round;paint-order:stroke markers fill"
         d="m -137.54365,317.68402 a 0.6425572,0.72823149 0 0 1 -0.64255,0.72823 0.6425572,0.72823149 0 0 1 -0.64256,-0.72823 0.6425572,0.72823149 0 0 1 0.64256,-0.72823 0.6425572,0.72823149 0 0 1 0.64255,0.72823 z" />
      <path
         id="ellipse26260"
         style="fill:#ffffff;stroke:#414042;stroke-width:0.948157;stroke-linejoin:round;paint-order:stroke markers fill"
         d="m -133.14968,317.63678 a 0.6425572,0.72823149 0 0 1 -0.64256,0.72823 0.6425572,0.72823149 0 0 1 -0.64255,-0.72823 0.6425572,0.72823149 0 0 1 0.64255,-0.72823 0.6425572,0.72823149 0 0 1 0.64256,0.72823 z" />
      <path
         id="ellipse26262"
         style="fill:#ffffff;stroke:#414042;stroke-width:0.948157;stroke-linejoin:round;paint-order:stroke markers fill"
         d="m -135.27579,325.05457 a 0.6425572,0.72823149 0 0 1 -0.64256,0.72823 0.6425572,0.72823149 0 0 1 -0.64256,-0.72823 0.6425572,0.72823149 0 0 1 0.64256,-0.72824 0.6425572,0.72823149 0 0 1 0.64256,0.72824 z" />
    </g>
    <g
       aria-label="WEBSITE"
       id="text5992"
       style="font-size:11.9461px;line-height:1.25;stroke-width:0.298654">
      <path
         d="m 43.914411,198.29757 q -0.26832,0 -0.472477,-0.15166 -0.233322,-0.17499 -0.233322,-0.43165 -0.268321,-0.7058 -0.338318,-1.14911 -0.07,-0.44331 -0.460811,-2.51405 -0.297486,-1.56909 -0.396648,-2.51988 -0.519142,1.92491 -1.114114,3.26068 -0.688301,1.54576 -0.892458,2.42072 0.07,0.13416 0.07,0.26249 0,0.26248 -0.233322,0.43164 -0.20999,0.1575 -0.478311,0.1575 -0.787462,0 -0.787462,-0.7058 l -0.180825,-0.7408 -0.635803,-2.8582 q -0.379149,-1.4466 -1.294939,-4.1473 -0.04083,-0.12833 -0.04083,-0.23333 0,-0.54247 0.612471,-0.54247 0.379148,0 0.583305,0.41415 0.104995,0.20999 0.425813,1.20744 0.344151,1.05578 0.688301,2.54321 l 0.565807,2.57821 q 0.624137,-1.44659 1.242441,-3.52316 0.379148,-1.26578 0.577472,-1.75575 0.524975,-1.28911 1.020785,-1.28911 0.408314,0 0.577473,0.41415 0.20999,0.50164 0.425813,2.39155 0.116661,0.95662 0.396648,2.29823 l 0.501643,2.29239 q 0.781629,-1.87825 1.954074,-5.08059 0.06416,-0.175 0.291653,-1.10245 0.169158,-0.68247 0.414147,-1.06162 0.20999,-0.32082 0.548307,-0.32082 0.589139,0 0.589139,0.58331 0,0.0992 -0.186658,0.5833 l -0.233322,0.62997 -0.320819,1.03829 -1.732417,4.21147 q -0.239156,0.69413 -0.822461,2.01823 -0.20999,0.39082 -0.629971,0.39082 z"
         style="font-family:'Comic Sans MS';-inkscape-font-specification:'Comic Sans MS, Normal'"
         id="path897" />
      <path
         d="m 54.536408,189.8863 q -0.08166,0 -0.180825,-0.0292 -0.985786,-0.27998 -1.901576,-0.27998 -0.478311,0 -1.044117,0.0875 -0.565807,0.0875 -1.219109,0.26832 0.0525,0.37915 0.0525,0.60664 0,0.8108 -0.09916,2.22823 l 2.554879,-0.24499 q 1.12578,-0.11666 1.382435,-0.11666 0.256654,0 0.431646,0.16333 0.174992,0.16332 0.174992,0.43748 0,0.5308 -0.536642,0.59497 l -1.388267,0.12249 -2.694872,0.24499 q -0.02333,0.41415 -0.04083,0.78746 -0.01167,0.36749 -0.01167,0.6883 0,1.28911 0.186658,1.5166 0.139993,0.16332 0.91579,0.16332 0.361649,0 1.084948,-0.0175 0.729133,-0.0233 1.096615,-0.0233 0.116661,0 0.34415,-0.035 0.22749,-0.0408 0.338318,-0.0408 0.618304,0 0.618304,0.60664 0,0.48998 -0.49581,0.58914 -0.548307,0.11083 -2.374054,0.11083 -1.808248,0 -2.321557,-0.47831 -0.559973,-0.51915 -0.559973,-2.39156 0,-0.37331 0.0175,-0.81662 0.0175,-0.44332 0.04666,-0.95663 -0.06416,-0.13416 -0.06416,-0.28582 0,-0.19832 0.110828,-0.35581 0.116661,-1.68576 0.116661,-2.49072 0,-0.21582 -0.05833,-0.62997 -0.05833,-0.41998 -0.05833,-0.6358 0,-0.69413 0.583306,-0.69413 0.244988,0 0.41998,0.16915 0.699966,-0.18665 1.31827,-0.27998 0.624138,-0.0933 1.172445,-0.0933 1.417433,0 2.263226,0.33832 0.390815,0.15749 0.390815,0.55997 0,0.23332 -0.15166,0.41415 -0.169158,0.19832 -0.41998,0.19832 z"
         style="font-family:'Comic Sans MS';-inkscape-font-specification:'Comic Sans MS, Normal'"
         id="path894" />
      <path
         d="m 60.661119,197.50427 q -1.312438,0.51331 -3.354008,0.51331 -0.250821,0 -0.47831,-0.23915 -0.221657,-0.23333 -0.221657,-0.48415 v -1.69742 q 0,-0.83412 0.104995,-2.37988 0.116662,-1.66826 0.128328,-2.41489 -0.0058,-0.53664 0.06416,-1.59826 0.04083,-0.29165 0.192491,-0.38498 0.793296,-0.24499 1.802415,-0.24499 1.026618,0 1.971573,0.69997 1.090781,0.80496 1.090781,1.98907 0,1.4991 -1.166611,2.36239 0.874959,0.37332 1.306605,0.82829 0.437479,0.45498 0.437479,0.99162 0,0.7058 -0.76413,1.36494 -0.530808,0.46664 -1.114114,0.69413 z m -1.761583,-7.74046 q -0.635803,0 -0.892458,0.0408 l -0.01167,1.02078 -0.116661,2.2574 q 0.828294,0.07 0.886624,0.0642 0.880792,-0.07 1.440765,-0.54831 0.600805,-0.51914 0.600805,-1.33577 0,-0.55414 -0.612471,-1.02662 -0.612471,-0.47247 -1.294938,-0.47247 z m 0.653302,4.67227 -0.618304,-0.0992 q -0.07583,0 -0.233322,0.0117 -0.15166,0.006 -0.233323,0.006 -0.314985,0 -0.670801,-0.0525 -0.035,0.73497 -0.035,1.31244 v 1.20744 q 1.52826,-0.0525 2.490715,-0.43164 0.408314,-0.15749 0.781629,-0.48998 0.355817,-0.30332 0.355817,-0.45498 0,-0.27415 -0.746631,-0.6183 -0.559974,-0.26249 -1.090782,-0.39082 z"
         style="font-family:'Comic Sans MS';-inkscape-font-specification:'Comic Sans MS, Normal'"
         id="path891" />
      <path
         d="m 63.805136,196.28516 q -0.0058,-0.24498 0.163325,-0.39664 0.174992,-0.1575 0.425814,-0.1575 0.285819,0 0.501642,0.32665 0.297486,0.44332 0.530809,0.60081 0.495809,0.32665 1.440765,0.32665 0.904123,0 1.67992,-0.39081 0.99162,-0.50165 0.99162,-1.39411 0,-0.73496 -0.834128,-1.16077 -0.705799,-0.36749 -1.744084,-0.39665 -0.921622,-0.035 -1.569092,-0.40248 -0.828294,-0.47248 -0.828294,-1.35327 0,-1.03829 1.178278,-1.89574 1.12578,-0.8108 2.327389,-0.8108 0.565807,0 1.27744,0.19249 0.944955,0.25082 0.944955,0.64164 0,0.51331 -0.524975,0.51331 -0.233322,0 -0.816628,-0.1225 -0.583306,-0.12832 -0.904124,-0.12249 -0.909957,0.0117 -1.54576,0.44914 -0.653302,0.44915 -0.653302,1.09079 0,0.48414 0.863292,0.68246 0.320818,0.0758 1.242441,0.14 1.33577,0.0992 2.088234,0.83996 0.688301,0.67663 0.688301,1.65075 0,1.38827 -1.283272,2.21656 -1.114114,0.71747 -2.584044,0.71747 -1.06745,0 -1.954075,-0.40832 -1.084948,-0.50164 -1.102447,-1.3766 z"
         style="font-family:'Comic Sans MS';-inkscape-font-specification:'Comic Sans MS, Normal'"
         id="path888" />
      <path
         d="m 76.888681,190.46961 q -0.373315,0 -0.939122,-0.0758 l -0.939122,-0.1225 q -0.13416,1.69742 -0.13416,3.24318 0,0.40832 0.02333,1.00912 0.02333,0.60081 0.02333,1.00912 0,0.54831 -0.04083,0.99745 l 1.837413,-0.0233 q 0.244988,0 0.408314,0.17499 0.169158,0.16916 0.169158,0.41998 0,0.25666 -0.169158,0.43165 -0.163326,0.16916 -0.408314,0.16916 -0.326651,0 -0.979954,0.0175 -0.653302,0.0117 -0.979953,0.0117 -0.384982,0 -1.154946,0.105 -0.76413,0.11082 -1.154945,0.11082 -0.244988,0 -0.414147,-0.17499 -0.163325,-0.16916 -0.163325,-0.41998 0,-0.25082 0.163325,-0.42581 0.169159,-0.17499 0.414147,-0.17499 0.379149,0 1.254107,-0.1225 0.05833,-0.47247 0.05833,-1.07911 0,-0.40248 -0.04083,-0.97996 -0.035,-0.5833 -0.035,-0.97995 0,-1.34743 0.163326,-3.36567 l -0.758298,0.0233 -0.758297,0.0175 q -0.250821,0 -0.41998,-0.16916 -0.169159,-0.16916 -0.169159,-0.43165 0,-0.54247 0.548308,-0.59497 0.472477,-0.0467 1.767416,-0.0467 1.160778,0 2.910695,0.25082 0.519142,0.0758 0.519142,0.62414 0,0.27415 -0.198324,0.43748 -0.174991,0.13416 -0.402481,0.13416 z"
         style="font-family:'Comic Sans MS';-inkscape-font-specification:'Comic Sans MS, Normal'"
         id="path885" />
      <path
         d="m 85.778261,190.37044 q -0.431647,0 -1.329937,-0.07 -0.874959,-0.0642 -1.329937,-0.0583 H 82.70424 q 0.0175,0.80496 0.157492,2.61321 0.128327,1.68575 0.128327,2.61904 0,0.20416 0.04083,0.6183 0.04083,0.41415 0.04083,0.62414 0,0.39665 -0.128327,0.68247 -0.163326,0.38498 -0.507476,0.38498 -0.233322,0 -0.41998,-0.16333 -0.186658,-0.16332 -0.186658,-0.41998 0,-0.0875 0.02917,-0.26248 0.02917,-0.175 0.02917,-0.26249 0,-0.28582 -0.04083,-0.85746 -0.035,-0.57164 -0.035,-0.86329 0,-0.83413 -0.13416,-2.34489 -0.139994,-1.63326 -0.157493,-2.34489 l -0.530808,0.006 q -1.277439,0 -2.006572,-0.18666 -0.472477,-0.12249 -0.472477,-0.57747 0,-0.23915 0.151659,-0.41998 0.174992,-0.20416 0.449146,-0.18666 0.204157,0.0117 0.933289,0.105 0.583305,0.07 0.944955,0.07 0.349983,0 1.061616,-0.0117 0.711633,-0.0175 1.061617,-0.0175 0.449145,0 1.329937,0.0642 0.886624,0.0642 1.33577,0.0642 0.250821,0 0.41998,0.17499 0.169158,0.16916 0.169158,0.42581 0,0.25082 -0.169158,0.42582 -0.169159,0.16915 -0.41998,0.16915 z"
         style="font-family:'Comic Sans MS';-inkscape-font-specification:'Comic Sans MS, Normal'"
         id="path882" />
      <path
         d="m 92.457109,189.8863 q -0.08166,0 -0.180825,-0.0292 -0.985786,-0.27998 -1.901576,-0.27998 -0.478311,0 -1.044117,0.0875 -0.565807,0.0875 -1.219109,0.26832 0.0525,0.37915 0.0525,0.60664 0,0.8108 -0.09916,2.22823 l 2.554879,-0.24499 q 1.12578,-0.11666 1.382435,-0.11666 0.256654,0 0.431646,0.16333 0.174992,0.16332 0.174992,0.43748 0,0.5308 -0.536642,0.59497 l -1.388267,0.12249 -2.694872,0.24499 q -0.02333,0.41415 -0.04083,0.78746 -0.01167,0.36749 -0.01167,0.6883 0,1.28911 0.186658,1.5166 0.139993,0.16332 0.91579,0.16332 0.361649,0 1.084948,-0.0175 0.729133,-0.0233 1.096615,-0.0233 0.116661,0 0.34415,-0.035 0.22749,-0.0408 0.338318,-0.0408 0.618304,0 0.618304,0.60664 0,0.48998 -0.49581,0.58914 -0.548307,0.11083 -2.374054,0.11083 -1.808248,0 -2.321557,-0.47831 -0.559973,-0.51915 -0.559973,-2.39156 0,-0.37331 0.0175,-0.81662 0.0175,-0.44332 0.04666,-0.95663 -0.06416,-0.13416 -0.06416,-0.28582 0,-0.19832 0.110828,-0.35581 0.116661,-1.68576 0.116661,-2.49072 0,-0.21582 -0.05833,-0.62997 -0.05833,-0.41998 -0.05833,-0.6358 0,-0.69413 0.583306,-0.69413 0.244988,0 0.41998,0.16915 0.699966,-0.18665 1.31827,-0.27998 0.624138,-0.0933 1.172445,-0.0933 1.417433,0 2.263226,0.33832 0.390815,0.15749 0.390815,0.55997 0,0.23332 -0.15166,0.41415 -0.169158,0.19832 -0.41998,0.19832 z"
         style="font-family:'Comic Sans MS';-inkscape-font-specification:'Comic Sans MS, Normal'"
         id="path879" />
    </g>
    <path
       id="path14341"
       style="stroke:#414042;stroke-width:12.7034;stroke-linejoin:round;paint-order:stroke markers fill"
       d="m 99.79606,123.2603 a 1.8700498,1.8494998 0 0 1 -1.87005,1.8495 1.8700498,1.8494998 0 0 1 -1.87005,-1.8495 1.8700498,1.8494998 0 0 1 1.87005,-1.8495 1.8700498,1.8494998 0 0 1 1.87005,1.8495 z" />
  </g>
</svg>
