<?xml version="1.0" encoding="UTF-8" standalone="no"?>
<!-- Created with Inkscape (http://www.inkscape.org/) -->

<svg
   width="500"
   height="500"
   viewBox="0 0 132.29166 132.29167"
   version="1.1"
   id="svg8"
   inkscape:version="1.1.1 (3bf5ae0d25, 2021-09-20)"
   sodipodi:docname="grapnico0006 - web - button - applications - 500 x 500 - 10.20.22.svg"
   inkscape:export-filename="C:\Users\micha\Desktop\Office\nicollettesadventures.com  - 6.24.22 - 5.1\Graffix\grapnico0006 - web - button - applications - 500 x 500 - 10.20.22.png"
   inkscape:export-xdpi="96"
   inkscape:export-ydpi="96"
   xmlns:inkscape="http://www.inkscape.org/namespaces/inkscape"
   xmlns:sodipodi="http://sodipodi.sourceforge.net/DTD/sodipodi-0.dtd"
   xmlns="http://www.w3.org/2000/svg"
   xmlns:svg="http://www.w3.org/2000/svg"
   xmlns:rdf="http://www.w3.org/1999/02/22-rdf-syntax-ns#"
   xmlns:cc="http://creativecommons.org/ns#"
   xmlns:dc="http://purl.org/dc/elements/1.1/">
  <defs
     id="defs2" />
  <sodipodi:namedview
     id="base"
     pagecolor="#ffffff"
     bordercolor="#666666"
     borderopacity="1.0"
     inkscape:pageopacity="0.0"
     inkscape:pageshadow="2"
     inkscape:zoom="0.9899495"
     inkscape:cx="200.0102"
     inkscape:cy="308.6016"
     inkscape:document-units="px"
     inkscape:current-layer="layer1"
     showgrid="false"
     inkscape:window-width="1360"
     inkscape:window-height="745"
     inkscape:window-x="-8"
     inkscape:window-y="-8"
     inkscape:window-maximized="1"
     units="px"
     inkscape:pagecheckerboard="0"
     showguides="true"
     inkscape:guide-bbox="true">
    <sodipodi:guide
       position="-132.10267,80.508931"
       orientation="1,0"
       id="guide12899" />
    <sodipodi:guide
       position="-119.06249,78.808038"
       orientation="1,0"
       id="guide12903" />
    <sodipodi:guide
       position="244.41797,60.930705"
       orientation="0,-1"
       id="guide1261" />
  </sodipodi:namedview>
  <metadata
     id="metadata5">
    <rdf:RDF>
      <cc:Work
         rdf:about="">
        <dc:format>image/svg+xml</dc:format>
        <dc:type
           rdf:resource="http://purl.org/dc/dcmitype/StillImage" />
      </cc:Work>
    </rdf:RDF>
  </metadata>
  <g
     inkscape:label="Layer 1"
     inkscape:groupmode="layer"
     id="layer1"
     transform="translate(0.58184959,-87.801292)">
    <text
       transform="scale(1.0068664,0.99318043)"
       xml:space="preserve"
       style="font-style:normal;font-weight:normal;font-size:4.72601px;line-height:1.25;font-family:sans-serif;letter-spacing:0px;word-spacing:0px;fill:#000000;fill-opacity:1;stroke:none;stroke-width:0.11815"
       x="127.18119"
       y="153.21716"
       id="text64791" />
    <text
       xml:space="preserve"
       style="font-style:normal;font-weight:normal;font-size:4.9707px;line-height:1.25;font-family:sans-serif;letter-spacing:0px;word-spacing:0px;fill:#000000;fill-opacity:1;stroke:none;stroke-width:0.124267"
       x="85.64164"
       y="167.6972"
       id="text64811"
       transform="scale(1.0996282,0.90939829)" />
    <text
       transform="scale(1.0996282,0.90939829)"
       id="text64815"
       y="181.60826"
       x="87.559036"
       style="font-style:normal;font-weight:normal;font-size:4.9707px;line-height:1.25;font-family:sans-serif;letter-spacing:0px;word-spacing:0px;fill:#000000;fill-opacity:1;stroke:none;stroke-width:0.124267"
       xml:space="preserve" />
    <text
       id="text64821"
       y="166.34476"
       x="127.97752"
       style="font-style:normal;font-weight:normal;font-size:4.72601px;line-height:1.25;font-family:sans-serif;letter-spacing:0px;word-spacing:0px;fill:#000000;fill-opacity:1;stroke:none;stroke-width:0.11815"
       xml:space="preserve"
       transform="scale(1.0068664,0.99318043)" />
    <text
       transform="scale(1.0068664,0.99318043)"
       xml:space="preserve"
       style="font-style:normal;font-weight:normal;font-size:4.72601px;line-height:1.25;font-family:sans-serif;letter-spacing:0px;word-spacing:0px;fill:#000000;fill-opacity:1;stroke:none;stroke-width:0.11815"
       x="128.9082"
       y="193.53192"
       id="text64837" />
    <text
       xml:space="preserve"
       style="font-style:normal;font-weight:normal;font-size:4.9707px;line-height:1.25;font-family:sans-serif;letter-spacing:0px;word-spacing:0px;fill:#000000;fill-opacity:1;stroke:none;stroke-width:0.124267"
       x="88.419876"
       y="196.81204"
       id="text64841"
       transform="scale(1.0996282,0.90939829)" />
    <text
       xml:space="preserve"
       style="font-style:normal;font-weight:normal;font-size:4.9707px;line-height:1.25;font-family:sans-serif;letter-spacing:0px;word-spacing:0px;fill:#000000;fill-opacity:1;stroke:none;stroke-width:0.124267"
       x="90.260063"
       y="211.21338"
       id="text64845"
       transform="scale(1.0996282,0.90939829)" />
    <text
       id="text64909"
       y="63.516281"
       x="-103.50844"
       style="font-style:normal;font-variant:normal;font-weight:normal;font-stretch:normal;font-size:10.5833px;line-height:1.25;font-family:Frenchpress;-inkscape-font-specification:'Frenchpress, Normal';font-variant-ligatures:normal;font-variant-caps:normal;font-variant-numeric:normal;font-feature-settings:normal;text-align:start;letter-spacing:0px;word-spacing:0px;writing-mode:lr-tb;text-anchor:start;fill:#000000;fill-opacity:1;stroke:none;stroke-width:0.264583"
       xml:space="preserve" />
    <text
       id="text64917"
       y="180.09474"
       x="127.44878"
       style="font-style:normal;font-weight:normal;font-size:5.29853px;line-height:1.25;font-family:sans-serif;letter-spacing:0px;word-spacing:0px;fill:#000000;fill-opacity:1;stroke:none;stroke-width:0.132463"
       xml:space="preserve" />
    <path
       id="path83863"
       style="fill:#640096;fill-opacity:0.00784314;stroke-width:11.4104"
       inkscape:transform-center-x="1.5084689e-06"
       inkscape:transform-center-y="-3.0251431e-06"
       transform="matrix(0.22534273,0,0,0.22534273,361.08396,221.35186)"
       d="m -998.03069,-133.34014 -48.08921,-38.61297 41.4623,45.65537 -44.9114,-42.26697 37.7523,48.76772 -41.4567,-45.66038 33.8097,51.5794 -37.7464,-48.77228 29.6585,54.07307 -33.8034,-51.58348 25.3246,56.23337 -29.652,-54.07666 20.8345,58.04697 -25.3178,-56.23643 16.216,59.50269 -20.8275,-58.04949 11.4975,60.591561 -16.2089,-59.504651 6.7081,61.306859 -11.4901,-60.592949 1.8773,61.644183 -6.7007,-61.307663 -2.965,61.601442 -1.8699,-61.644402 -7.789,61.178914 2.9724,-61.601084 -12.5651,60.379201 7.7965,-61.177981 -17.2637,59.207234 12.5724,-60.377684 -21.8557,57.670224 17.2708,-59.205144 -26.3132,55.77766 21.8627,-57.66758 -30.6083,53.54121 26.3199,-55.77448 -34.7147,50.97467 30.6148,-53.53752 -38.6072,48.09384 34.7209,-50.97046 -42.2615,44.9165 38.6129,-48.08918 -45.6553,41.46224 42.2669,-44.91139 -48.7677,37.75234 45.6604,-41.45672 -51.5794,33.8097 48.7723,-37.74645 -54.0731,29.6586 51.5835,-33.80346 -56.2334,25.32464 54.0767,-29.65206 -58.047,20.83456 56.2364,-25.31785 -59.5026,16.21602 58.0494,-20.82754 -60.5915,11.49751 59.5046,-16.20883 -61.3068,6.7081 60.5929,-11.49018 -61.6442,1.87734 61.3077,-6.70069 -61.6014,-2.96499 61.6444,-1.86989 -61.1789,-7.78904 61.601,2.97243 -60.3792,-12.56507 61.178,7.79644 -59.2072,-17.26364 60.3777,12.57237 -57.6703,-21.85577 59.2052,17.2708 -55.7777,-26.31315 57.6676,21.86274 -53.5412,-30.6083 55.7745,26.31989 -50.9747,-34.71474 53.5375,30.61477 -48.0938,-38.60715 50.9704,34.7209 -44.9165,-42.26153 48.0892,38.61296 -41.4622,-45.65537 44.9114,42.26697 -37.7524,-48.76772 41.4568,45.66038 -33.8097,-51.57939 37.7464,48.77227 -29.6586,-54.07307 33.8035,51.58348 -25.3247,-56.23336 29.6521,54.07665 -20.8346,-58.04697 25.3179,56.23643 -16.216,-59.50269 20.8275,58.04949 -11.4975,-60.59156 16.2088,59.50465 -6.7081,-61.30686 11.4902,60.59295 -1.8773,-61.64418 6.7006,61.30767 2.965,-61.60145 1.8699,61.64441 7.7891,-61.17892 -2.9725,61.60109 12.5651,-60.37921 -7.7964,61.17798 17.2636,-59.20723 -12.5724,60.37768 21.8558,-57.67022 -17.2708,59.20514 26.3132,-55.77766 -21.8628,57.66758 30.6083,-53.54121 -26.3199,55.77448 34.7148,-50.97466 -30.6148,53.53751 38.6071,-48.09384 -34.7209,50.97047 42.2616,-44.9165 -38.613,48.08917 45.6554,-41.46224 -42.267,44.9114 48.76773,-37.75235 -45.66033,41.45672 51.57935,-33.8097 -48.77225,37.74645 54.07304,-29.65859 -51.58344,33.80345 56.23333,-25.32464 -54.07663,29.65206 58.04694,-20.83456 -56.23644,25.31785 59.5027,-16.21602 -58.0495,20.82754 60.59157,-11.4975 -59.50467,16.20882 61.30688,-6.7081 -60.59298,11.49018 61.64421,-1.87734 -61.30771,6.70069 61.60149,2.96499 -61.64439,1.86989 61.17891,7.78905 -61.60111,-2.97244 60.37922,12.56508 -61.17802,-7.79644 59.20728,17.26364 -60.37768,-12.57238 57.67022,21.85577 -59.20512,-17.2708 55.77764,26.31315 -57.66754,-21.86274 53.54117,30.6083 -55.77447,-26.31989 50.97465,34.71474 -53.53755,-30.61477 48.09388,38.60715 -50.97048,-34.7209 z" />
    <text
       xml:space="preserve"
       style="font-style:normal;font-weight:normal;font-size:5.58591px;line-height:1.25;font-family:sans-serif;fill:#000000;fill-opacity:1;stroke:none;stroke-width:0.139648"
       x="-94.64418"
       y="212.77162"
       id="text66647"><tspan
         sodipodi:role="line"
         id="tspan66645"
         style="stroke-width:0.139648"
         x="-94.64418"
         y="212.77162" /></text>
    <g
       inkscape:label="Layer 1"
       id="layer1-05"
       transform="matrix(1.0052158,0,0,0.9921176,-1.1229785,0.81923292)">
      <path
         id="rect64757-4"
         style="opacity:1;fill:none;stroke-width:1.06812"
         d="M 0.53832114,87.673134 H 132.14356 V 221.01586 H 0.53832114 Z" />
      <g
         transform="scale(1.0068664,0.99318043)"
         id="text64791-0"
         style="font-size:4.72601px;line-height:1.25;letter-spacing:0px;word-spacing:0px;stroke-width:0.11815" />
      <g
         transform="scale(1.0996282,0.90939829)"
         id="text64811-2"
         style="font-size:4.9707px;line-height:1.25;letter-spacing:0px;word-spacing:0px;stroke-width:0.124267" />
      <g
         transform="scale(1.0996282,0.90939829)"
         id="text64815-0"
         style="font-size:4.9707px;line-height:1.25;letter-spacing:0px;word-spacing:0px;stroke-width:0.124267" />
      <g
         transform="scale(1.0068664,0.99318043)"
         id="text64821-9"
         style="font-size:4.72601px;line-height:1.25;letter-spacing:0px;word-spacing:0px;stroke-width:0.11815" />
      <g
         transform="scale(1.0068664,0.99318043)"
         id="text64837-2"
         style="font-size:4.72601px;line-height:1.25;letter-spacing:0px;word-spacing:0px;stroke-width:0.11815" />
      <g
         transform="scale(1.0996282,0.90939829)"
         id="text64841-2"
         style="font-size:4.9707px;line-height:1.25;letter-spacing:0px;word-spacing:0px;stroke-width:0.124267" />
      <g
         transform="scale(1.0996282,0.90939829)"
         id="text64845-7"
         style="font-size:4.9707px;line-height:1.25;letter-spacing:0px;word-spacing:0px;stroke-width:0.124267" />
      <g
         id="text64909-1"
         style="font-size:10.5833px;line-height:1.25;font-family:Frenchpress;-inkscape-font-specification:'Frenchpress, Normal';letter-spacing:0px;word-spacing:0px;stroke-width:0.264583" />
      <g
         id="text64917-0"
         style="font-size:5.29853px;line-height:1.25;letter-spacing:0px;word-spacing:0px;stroke-width:0.132463" />
      <path
         id="rect132634-2"
         style="stroke:#ff1952;stroke-width:2.87862"
         d="m 40.900737,94.222626 h 50.300057 c 18.873976,0 34.068546,15.194574 34.068546,34.068554 V 181.329 c 0,18.87398 -15.19457,34.06855 -34.068546,34.06855 H 40.900737 c -18.873976,0 -34.0685498,-15.19457 -34.0685498,-34.06855 v -53.03782 c 0,-18.87398 15.1945738,-34.068554 34.0685498,-34.068554 z" />
      <g
         inkscape:label="Layer 1"
         id="layer1-0"
         transform="matrix(0.7452201,0,0,0.7452201,15.454516,106.04863)">
        <path
           id="rect84135"
           style="fill:#b1afbd;stroke:#ff1952;stroke-width:2.5019"
           d="m 31.895308,-0.94080722 h 73.148282 c 16.17719,0 29.2007,13.02351122 29.2007,29.20069922 v 71.958858 c 0,16.17719 -13.02351,29.2007 -29.2007,29.2007 H 31.895308 c -16.177187,0 -29.2006991,-13.02351 -29.2006991,-29.2007 V 28.259892 c 0,-16.177188 13.0235121,-29.20069922 29.2006991,-29.20069922 z" />
      </g>
    </g>
    <g
       aria-label="Apps"
       id="text2608"
       style="font-size:18.0149px;line-height:1.25;font-family:'Comic Sans MS';-inkscape-font-specification:'Comic Sans MS, Normal';stroke-width:0.450373">
      <path
         d="m 55.077889,194.9627 q -0.809263,0 -1.407414,-2.07594 -0.228705,-0.79167 -0.571762,-2.77085 -0.897227,0.12315 -2.348623,0.43982 l -2.339826,0.4838 q -0.439816,1.15232 -1.504173,3.369 -0.281483,0.49259 -0.765282,0.49259 -0.351853,0 -0.633336,-0.25509 -0.272687,-0.2551 -0.272687,-0.63334 0,-0.42222 1.328247,-3.21066 -0.149537,-0.22871 -0.149537,-0.52778 0,-0.7125 0.862041,-0.91482 1.002782,-1.88242 2.533345,-4.3278 2.084732,-3.33381 2.59492,-3.33381 0.694911,0 0.950004,0.9676 l 0.55417,2.95557 1.310654,6.11345 0.501391,1.38982 q 0.255094,0.71251 0.255094,0.95001 0,0.37824 -0.272686,0.63333 -0.272687,0.2551 -0.62454,0.2551 z m -3.105108,-10.05422 -2.515752,4.05511 q 1.064357,-0.27268 3.228256,-0.65972 z"
         id="path1291" />
      <path
         d="m 62.220515,195.00668 q -0.879634,0 -1.935194,-0.28148 l -0.01759,4.20465 q 0,0.38703 -0.246298,0.63333 -0.237501,0.2463 -0.615743,0.2463 -0.378243,0 -0.62454,-0.2463 -0.237501,-0.2463 -0.237501,-0.63333 l 0.02639,-3.51854 v -3.50974 q -0.02639,-1.9264 -0.131945,-3.50974 l -0.131945,-1.78565 q 0,-0.62454 0.228704,-1.05556 0.26389,-0.51899 0.765282,-0.51899 0.343057,0 0.571762,0.2463 0.237501,0.2375 0.237501,0.58935 0,0.0792 -0.02639,0.29028 -0.04398,0.27269 -0.06157,0.50139 0.756486,-0.51898 1.460193,-0.77407 0.703707,-0.26389 1.345839,-0.26389 1.80325,0 2.638902,1.60093 0.659725,1.26667 0.659725,3.3514 0,1.90001 -1.020375,3.1315 -1.08195,1.30186 -2.885199,1.30186 z m 0.606947,-7.62643 q -0.809263,0 -1.460192,0.36065 -0.466206,0.2551 -1.178709,0.93242 0.114352,1.99676 0.114352,4.19585 0.958801,0.36944 1.917602,0.36944 1.099542,0 1.680101,-0.81805 0.501391,-0.71251 0.501391,-1.84724 0,-1.60093 -0.395835,-2.3926 -0.387039,-0.80047 -1.17871,-0.80047 z"
         id="path1293" />
      <path
         d="m 71.852505,195.00668 q -0.879633,0 -1.935194,-0.28148 l -0.01759,4.20465 q 0,0.38703 -0.246297,0.63333 -0.237501,0.2463 -0.615744,0.2463 -0.378242,0 -0.62454,-0.2463 -0.237501,-0.2463 -0.237501,-0.63333 l 0.02639,-3.51854 v -3.50974 q -0.02639,-1.9264 -0.131945,-3.50974 l -0.131945,-1.78565 q 0,-0.62454 0.228705,-1.05556 0.26389,-0.51899 0.765281,-0.51899 0.343057,0 0.571762,0.2463 0.237501,0.2375 0.237501,0.58935 0,0.0792 -0.02639,0.29028 -0.04398,0.27269 -0.06157,0.50139 0.756485,-0.51898 1.460192,-0.77407 0.703707,-0.26389 1.34584,-0.26389 1.803249,0 2.638901,1.60093 0.659725,1.26667 0.659725,3.3514 0,1.90001 -1.020375,3.1315 -1.081949,1.30186 -2.885199,1.30186 z m 0.606948,-7.62643 q -0.809263,0 -1.460192,0.36065 -0.466206,0.2551 -1.17871,0.93242 0.114353,1.99676 0.114353,4.19585 0.958801,0.36944 1.917601,0.36944 1.099543,0 1.680101,-0.81805 0.501391,-0.71251 0.501391,-1.84724 0,-1.60093 -0.395835,-2.3926 -0.387039,-0.80047 -1.178709,-0.80047 z"
         id="path1295" />
      <path
         d="m 83.68358,187.92563 q -0.483798,0 -0.677318,-0.32547 -0.131945,-0.2287 -0.228704,-0.95 -0.659726,0.16713 -2.031955,0.61574 -1.41621,0.56297 -1.425006,1.38982 0.26389,0.0968 0.518984,0.14074 2.023157,0.36065 3.008347,0.99399 1.433803,0.92362 1.433803,2.67409 0,1.4338 -1.240283,2.1639 -1.029172,0.59815 -2.603716,0.59815 -1.152321,0 -2.199085,-0.38704 -1.354636,-0.4926 -1.354636,-1.37223 0,-0.35185 0.272687,-0.61574 0.281482,-0.26389 0.633336,-0.26389 0.272686,0 0.703707,0.42222 0.211112,0.20232 0.950004,0.33426 0.589355,0.10556 0.993987,0.10556 0.738892,0 1.301858,-0.17593 0.818059,-0.25509 0.818059,-0.80926 0,-1.19631 -1.671304,-1.61853 l -0.914819,-0.20232 q -1.169913,-0.25509 -1.662508,-0.59815 -0.712504,-0.49259 -0.712504,-1.48658 0,-1.83843 1.732879,-2.62131 0.52778,-0.2375 1.688897,-0.56296 1.161117,-0.33426 1.662508,-0.56297 0.36065,-0.15833 0.782874,-0.15833 0.378242,0 0.615744,0.2463 0.246297,0.24629 0.246297,0.64213 0,0.25509 0.105556,0.74769 0.114352,0.49259 0.114352,0.74769 0,0.39583 -0.246297,0.64213 -0.237501,0.2463 -0.615744,0.2463 z"
         id="path1297" />
    </g>
    <g
       id="g1276"
       transform="translate(-169.98341,-8.2853552)">
      <g
         id="g16922"
         transform="translate(86.728959,-123.34489)">
        <g
           id="g15198"
           transform="matrix(1.3257073,0,0,1.0311973,307.08742,123.02709)">
          <g
             aria-label="A"
             id="text12581"
             style="font-size:69.6904px;line-height:1.25;fill:#414042;stroke-width:1.74227">
            <path
               d="m -118.58676,134.48267 -9.32382,25.28318 h 18.68166 z m -3.87925,-6.77168 h 7.79253 l 19.362222,50.80457 h -7.145992 l -4.62787,-13.03292 h -22.90119 l -4.62788,13.03292 h -7.24808 z"
               id="path1300" />
          </g>
          <path
             id="path12817"
             style="fill:none;stroke:#414042;stroke-width:5.27486;stroke-linejoin:round;paint-order:stroke markers fill"
             d="m -134.83626,180.21648 a 3.7068961,4.0848722 0 0 1 -3.70689,4.08487 3.7068961,4.0848722 0 0 1 -3.7069,-4.08487 3.7068961,4.0848722 0 0 1 3.7069,-4.08488 3.7068961,4.0848722 0 0 1 3.70689,4.08488 z" />
          <path
             id="ellipse14664"
             style="fill:none;stroke:#414042;stroke-width:5.27486;stroke-linejoin:round;paint-order:stroke markers fill"
             d="m -114.99251,125.03195 a 3.7068961,4.0848722 0 0 1 -3.70689,4.08487 3.7068961,4.0848722 0 0 1 -3.7069,-4.08487 3.7068961,4.0848722 0 0 1 3.7069,-4.08487 3.7068961,4.0848722 0 0 1 3.70689,4.08487 z" />
          <path
             id="ellipse14666"
             style="fill:none;stroke:#414042;stroke-width:5.27486;stroke-linejoin:round;paint-order:stroke markers fill"
             d="m -94.77078,180.21648 a 3.7068961,4.0848722 0 0 1 -3.706896,4.08487 3.7068961,4.0848722 0 0 1 -3.706894,-4.08487 3.7068961,4.0848722 0 0 1 3.706894,-4.08488 3.7068961,4.0848722 0 0 1 3.706896,4.08488 z" />
          <path
             id="ellipse14670"
             style="fill:none;stroke:#414042;stroke-width:5.27486;stroke-linejoin:round;paint-order:stroke markers fill"
             d="m -128.22168,161.50665 a 3.7068961,4.0848722 0 0 1 -3.70689,4.08488 3.7068961,4.0848722 0 0 1 -3.7069,-4.08488 3.7068961,4.0848722 0 0 1 3.7069,-4.08487 3.7068961,4.0848722 0 0 1 3.70689,4.08487 z" />
          <path
             id="ellipse14672"
             style="fill:none;stroke:#414042;stroke-width:5.27486;stroke-linejoin:round;paint-order:stroke markers fill"
             d="m -102.33031,161.24747 a 3.7068961,4.0848722 0 0 1 -3.7069,4.08487 3.7068961,4.0848722 0 0 1 -3.70689,-4.08487 3.7068961,4.0848722 0 0 1 3.70689,-4.08488 3.7068961,4.0848722 0 0 1 3.7069,4.08488 z" />
        </g>
        <path
           id="path15336"
           style="fill:#ffffff;stroke:#414042;stroke-width:6.64104;stroke-linejoin:round;paint-order:stroke markers fill"
           d="m 154.03357,252.37251 a 4.4099469,3.541321 0 0 1 -4.40994,3.54132 4.4099469,3.541321 0 0 1 -4.40995,-3.54132 4.4099469,3.541321 0 0 1 4.40995,-3.54132 4.4099469,3.541321 0 0 1 4.40994,3.54132 z" />
        <path
           id="ellipse16824"
           style="fill:#ffffff;stroke:#414042;stroke-width:6.70837;stroke-linejoin:round;paint-order:stroke markers fill"
           d="m 153.99991,252.23888 a 4.3762817,3.6412904 0 0 1 -4.37628,3.64129 4.3762817,3.6412904 0 0 1 -4.37629,-3.64129 4.3762817,3.6412904 0 0 1 4.37629,-3.64129 4.3762817,3.6412904 0 0 1 4.37628,3.64129 z" />
        <path
           id="ellipse16826"
           style="fill:#ffffff;stroke:#414042;stroke-width:6.70837;stroke-linejoin:round;paint-order:stroke markers fill"
           d="m 127.67386,309.03366 a 4.3762817,3.6412904 0 0 1 -4.37628,3.64129 4.3762817,3.6412904 0 0 1 -4.37628,-3.64129 4.3762817,3.6412904 0 0 1 4.37628,-3.64129 4.3762817,3.6412904 0 0 1 4.37628,3.64129 z" />
        <path
           id="ellipse16828"
           style="fill:#ffffff;stroke:#414042;stroke-width:6.70837;stroke-linejoin:round;paint-order:stroke markers fill"
           d="m 180.99414,309.30093 a 4.3762817,3.6412904 0 0 1 -4.37628,3.64129 4.3762817,3.6412904 0 0 1 -4.37628,-3.64129 4.3762817,3.6412904 0 0 1 4.37628,-3.64129 4.3762817,3.6412904 0 0 1 4.37628,3.64129 z" />
      </g>
    </g>
  </g>
</svg>
