<?xml version="1.0" encoding="UTF-8" standalone="no"?>
<!-- Created with Inkscape (http://www.inkscape.org/) -->

<svg
   width="500"
   height="500"
   viewBox="0 0 132.29166 132.29167"
   version="1.1"
   id="svg8"
   inkscape:version="1.1.1 (3bf5ae0d25, 2021-09-20)"
   sodipodi:docname="grapnico0007 - web - button - coding - 500 x 500 - 10.20.22.svg"
   inkscape:export-filename="C:\Users\micha\Desktop\Office\nicollettesadventures.com  - 6.24.22 - 5.1\Graffix\grapnico0007 - web - button - coding - 500 x 500 - 10.20.22.png"
   inkscape:export-xdpi="96"
   inkscape:export-ydpi="96"
   xmlns:inkscape="http://www.inkscape.org/namespaces/inkscape"
   xmlns:sodipodi="http://sodipodi.sourceforge.net/DTD/sodipodi-0.dtd"
   xmlns="http://www.w3.org/2000/svg"
   xmlns:svg="http://www.w3.org/2000/svg"
   xmlns:rdf="http://www.w3.org/1999/02/22-rdf-syntax-ns#"
   xmlns:cc="http://creativecommons.org/ns#"
   xmlns:dc="http://purl.org/dc/elements/1.1/">
  <defs
     id="defs2" />
  <sodipodi:namedview
     id="base"
     pagecolor="#ffffff"
     bordercolor="#666666"
     borderopacity="1.0"
     inkscape:pageopacity="0.0"
     inkscape:pageshadow="2"
     inkscape:zoom="0.7"
     inkscape:cx="231.42857"
     inkscape:cy="226.42857"
     inkscape:document-units="px"
     inkscape:current-layer="layer1"
     showgrid="false"
     inkscape:window-width="1360"
     inkscape:window-height="745"
     inkscape:window-x="-8"
     inkscape:window-y="-8"
     inkscape:window-maximized="1"
     units="px"
     inkscape:pagecheckerboard="0"
     showguides="true"
     inkscape:guide-bbox="true" />
  <metadata
     id="metadata5">
    <rdf:RDF>
      <cc:Work
         rdf:about="">
        <dc:format>image/svg+xml</dc:format>
        <dc:type
           rdf:resource="http://purl.org/dc/dcmitype/StillImage" />
      </cc:Work>
    </rdf:RDF>
  </metadata>
  <g
     inkscape:label="Layer 1"
     inkscape:groupmode="layer"
     id="layer1"
     transform="translate(0.58184959,-87.801292)">
    <text
       transform="scale(1.0068664,0.99318043)"
       xml:space="preserve"
       style="font-style:normal;font-weight:normal;font-size:4.72601px;line-height:1.25;font-family:sans-serif;letter-spacing:0px;word-spacing:0px;fill:#000000;fill-opacity:1;stroke:none;stroke-width:0.11815"
       x="127.18119"
       y="153.21716"
       id="text64791" />
    <text
       xml:space="preserve"
       style="font-style:normal;font-weight:normal;font-size:4.9707px;line-height:1.25;font-family:sans-serif;letter-spacing:0px;word-spacing:0px;fill:#000000;fill-opacity:1;stroke:none;stroke-width:0.124267"
       x="85.64164"
       y="167.6972"
       id="text64811"
       transform="scale(1.0996282,0.90939829)" />
    <text
       transform="scale(1.0996282,0.90939829)"
       id="text64815"
       y="181.60826"
       x="87.559036"
       style="font-style:normal;font-weight:normal;font-size:4.9707px;line-height:1.25;font-family:sans-serif;letter-spacing:0px;word-spacing:0px;fill:#000000;fill-opacity:1;stroke:none;stroke-width:0.124267"
       xml:space="preserve" />
    <text
       id="text64821"
       y="166.34476"
       x="127.97752"
       style="font-style:normal;font-weight:normal;font-size:4.72601px;line-height:1.25;font-family:sans-serif;letter-spacing:0px;word-spacing:0px;fill:#000000;fill-opacity:1;stroke:none;stroke-width:0.11815"
       xml:space="preserve"
       transform="scale(1.0068664,0.99318043)" />
    <text
       transform="scale(1.0068664,0.99318043)"
       xml:space="preserve"
       style="font-style:normal;font-weight:normal;font-size:4.72601px;line-height:1.25;font-family:sans-serif;letter-spacing:0px;word-spacing:0px;fill:#000000;fill-opacity:1;stroke:none;stroke-width:0.11815"
       x="128.9082"
       y="193.53192"
       id="text64837" />
    <text
       xml:space="preserve"
       style="font-style:normal;font-weight:normal;font-size:4.9707px;line-height:1.25;font-family:sans-serif;letter-spacing:0px;word-spacing:0px;fill:#000000;fill-opacity:1;stroke:none;stroke-width:0.124267"
       x="88.419876"
       y="196.81204"
       id="text64841"
       transform="scale(1.0996282,0.90939829)" />
    <text
       xml:space="preserve"
       style="font-style:normal;font-weight:normal;font-size:4.9707px;line-height:1.25;font-family:sans-serif;letter-spacing:0px;word-spacing:0px;fill:#000000;fill-opacity:1;stroke:none;stroke-width:0.124267"
       x="90.260063"
       y="211.21338"
       id="text64845"
       transform="scale(1.0996282,0.90939829)" />
    <text
       id="text64909"
       y="63.516281"
       x="-103.50844"
       style="font-style:normal;font-variant:normal;font-weight:normal;font-stretch:normal;font-size:10.5833px;line-height:1.25;font-family:Frenchpress;-inkscape-font-specification:'Frenchpress, Normal';font-variant-ligatures:normal;font-variant-caps:normal;font-variant-numeric:normal;font-feature-settings:normal;text-align:start;letter-spacing:0px;word-spacing:0px;writing-mode:lr-tb;text-anchor:start;fill:#000000;fill-opacity:1;stroke:none;stroke-width:0.264583"
       xml:space="preserve" />
    <text
       id="text64917"
       y="180.09474"
       x="127.44878"
       style="font-style:normal;font-weight:normal;font-size:5.29853px;line-height:1.25;font-family:sans-serif;letter-spacing:0px;word-spacing:0px;fill:#000000;fill-opacity:1;stroke:none;stroke-width:0.132463"
       xml:space="preserve" />
    <path
       id="path83863"
       style="fill:#640096;fill-opacity:0.00784314;stroke-width:11.4104"
       inkscape:transform-center-x="1.5084689e-06"
       inkscape:transform-center-y="-3.0251431e-06"
       transform="matrix(0.22534273,0,0,0.22534273,361.08396,221.35186)"
       d="m -998.03069,-133.34014 -48.08921,-38.61297 41.4623,45.65537 -44.9114,-42.26697 37.7523,48.76772 -41.4567,-45.66038 33.8097,51.5794 -37.7464,-48.77228 29.6585,54.07307 -33.8034,-51.58348 25.3246,56.23337 -29.652,-54.07666 20.8345,58.04697 -25.3178,-56.23643 16.216,59.50269 -20.8275,-58.04949 11.4975,60.591561 -16.2089,-59.504651 6.7081,61.306859 -11.4901,-60.592949 1.8773,61.644183 -6.7007,-61.307663 -2.965,61.601442 -1.8699,-61.644402 -7.789,61.178914 2.9724,-61.601084 -12.5651,60.379201 7.7965,-61.177981 -17.2637,59.207234 12.5724,-60.377684 -21.8557,57.670224 17.2708,-59.205144 -26.3132,55.77766 21.8627,-57.66758 -30.6083,53.54121 26.3199,-55.77448 -34.7147,50.97467 30.6148,-53.53752 -38.6072,48.09384 34.7209,-50.97046 -42.2615,44.9165 38.6129,-48.08918 -45.6553,41.46224 42.2669,-44.91139 -48.7677,37.75234 45.6604,-41.45672 -51.5794,33.8097 48.7723,-37.74645 -54.0731,29.6586 51.5835,-33.80346 -56.2334,25.32464 54.0767,-29.65206 -58.047,20.83456 56.2364,-25.31785 -59.5026,16.21602 58.0494,-20.82754 -60.5915,11.49751 59.5046,-16.20883 -61.3068,6.7081 60.5929,-11.49018 -61.6442,1.87734 61.3077,-6.70069 -61.6014,-2.96499 61.6444,-1.86989 -61.1789,-7.78904 61.601,2.97243 -60.3792,-12.56507 61.178,7.79644 -59.2072,-17.26364 60.3777,12.57237 -57.6703,-21.85577 59.2052,17.2708 -55.7777,-26.31315 57.6676,21.86274 -53.5412,-30.6083 55.7745,26.31989 -50.9747,-34.71474 53.5375,30.61477 -48.0938,-38.60715 50.9704,34.7209 -44.9165,-42.26153 48.0892,38.61296 -41.4622,-45.65537 44.9114,42.26697 -37.7524,-48.76772 41.4568,45.66038 -33.8097,-51.57939 37.7464,48.77227 -29.6586,-54.07307 33.8035,51.58348 -25.3247,-56.23336 29.6521,54.07665 -20.8346,-58.04697 25.3179,56.23643 -16.216,-59.50269 20.8275,58.04949 -11.4975,-60.59156 16.2088,59.50465 -6.7081,-61.30686 11.4902,60.59295 -1.8773,-61.64418 6.7006,61.30767 2.965,-61.60145 1.8699,61.64441 7.7891,-61.17892 -2.9725,61.60109 12.5651,-60.37921 -7.7964,61.17798 17.2636,-59.20723 -12.5724,60.37768 21.8558,-57.67022 -17.2708,59.20514 26.3132,-55.77766 -21.8628,57.66758 30.6083,-53.54121 -26.3199,55.77448 34.7148,-50.97466 -30.6148,53.53751 38.6071,-48.09384 -34.7209,50.97047 42.2616,-44.9165 -38.613,48.08917 45.6554,-41.46224 -42.267,44.9114 48.76773,-37.75235 -45.66033,41.45672 51.57935,-33.8097 -48.77225,37.74645 54.07304,-29.65859 -51.58344,33.80345 56.23333,-25.32464 -54.07663,29.65206 58.04694,-20.83456 -56.23644,25.31785 59.5027,-16.21602 -58.0495,20.82754 60.59157,-11.4975 -59.50467,16.20882 61.30688,-6.7081 -60.59298,11.49018 61.64421,-1.87734 -61.30771,6.70069 61.60149,2.96499 -61.64439,1.86989 61.17891,7.78905 -61.60111,-2.97244 60.37922,12.56508 -61.17802,-7.79644 59.20728,17.26364 -60.37768,-12.57238 57.67022,21.85577 -59.20512,-17.2708 55.77764,26.31315 -57.66754,-21.86274 53.54117,30.6083 -55.77447,-26.31989 50.97465,34.71474 -53.53755,-30.61477 48.09388,38.60715 -50.97048,-34.7209 z" />
    <text
       xml:space="preserve"
       style="font-style:normal;font-weight:normal;font-size:5.58591px;line-height:1.25;font-family:sans-serif;fill:#000000;fill-opacity:1;stroke:none;stroke-width:0.139648"
       x="-94.64418"
       y="212.77162"
       id="text66647"><tspan
         sodipodi:role="line"
         id="tspan66645"
         style="stroke-width:0.139648"
         x="-94.64418"
         y="212.77162" /></text>
    <g
       inkscape:label="Layer 1"
       id="layer1-05"
       transform="matrix(1.0052158,0,0,0.9921176,0.21336911,1.888311)">
      <path
         id="rect64757-4"
         style="opacity:1;fill:none;stroke-width:1.06812"
         d="M 0.53832114,87.673134 H 132.14356 V 221.01586 H 0.53832114 Z" />
      <g
         transform="scale(1.0068664,0.99318043)"
         id="text64791-0"
         style="font-size:4.72601px;line-height:1.25;letter-spacing:0px;word-spacing:0px;stroke-width:0.11815" />
      <g
         transform="scale(1.0996282,0.90939829)"
         id="text64811-2"
         style="font-size:4.9707px;line-height:1.25;letter-spacing:0px;word-spacing:0px;stroke-width:0.124267" />
      <g
         transform="scale(1.0996282,0.90939829)"
         id="text64815-0"
         style="font-size:4.9707px;line-height:1.25;letter-spacing:0px;word-spacing:0px;stroke-width:0.124267" />
      <g
         transform="scale(1.0068664,0.99318043)"
         id="text64821-9"
         style="font-size:4.72601px;line-height:1.25;letter-spacing:0px;word-spacing:0px;stroke-width:0.11815" />
      <g
         transform="scale(1.0068664,0.99318043)"
         id="text64837-2"
         style="font-size:4.72601px;line-height:1.25;letter-spacing:0px;word-spacing:0px;stroke-width:0.11815" />
      <g
         transform="scale(1.0996282,0.90939829)"
         id="text64841-2"
         style="font-size:4.9707px;line-height:1.25;letter-spacing:0px;word-spacing:0px;stroke-width:0.124267" />
      <g
         transform="scale(1.0996282,0.90939829)"
         id="text64845-7"
         style="font-size:4.9707px;line-height:1.25;letter-spacing:0px;word-spacing:0px;stroke-width:0.124267" />
      <g
         id="text64909-1"
         style="font-size:10.5833px;line-height:1.25;font-family:Frenchpress;-inkscape-font-specification:'Frenchpress, Normal';letter-spacing:0px;word-spacing:0px;stroke-width:0.264583" />
      <g
         id="text64917-0"
         style="font-size:5.29853px;line-height:1.25;letter-spacing:0px;word-spacing:0px;stroke-width:0.132463" />
      <path
         id="rect132634-2"
         style="stroke:#ff1952;stroke-width:2.87862"
         d="m 40.900737,94.222626 h 50.300057 c 18.873976,0 34.068546,15.194574 34.068546,34.068554 V 181.329 c 0,18.87398 -15.19457,34.06855 -34.068546,34.06855 H 40.900737 c -18.873976,0 -34.0685498,-15.19457 -34.0685498,-34.06855 v -53.03782 c 0,-18.87398 15.1945738,-34.068554 34.0685498,-34.068554 z" />
      <g
         inkscape:label="Layer 1"
         id="layer1-0"
         transform="matrix(0.7452201,0,0,0.7452201,15.454516,106.04863)">
        <path
           id="rect84135"
           style="fill:#b1afbd;stroke:#ff1952;stroke-width:2.5019"
           d="m 31.895308,-0.94080722 h 73.148282 c 16.17719,0 29.2007,13.02351122 29.2007,29.20069922 v 71.958858 c 0,16.17719 -13.02351,29.2007 -29.2007,29.2007 H 31.895308 c -16.177187,0 -29.2006991,-13.02351 -29.2006991,-29.2007 V 28.259892 c 0,-16.177188 13.0235121,-29.20069922 29.2006991,-29.20069922 z" />
      </g>
    </g>
    <g
       aria-label="Apps"
       id="text2608"
       style="font-size:18.0149px;line-height:1.25;font-family:'Comic Sans MS';-inkscape-font-specification:'Comic Sans MS, Normal';stroke-width:0.450373"
       transform="matrix(1.1501665,0,0,0.81167777,-5.8821603,-103.55106)">
      <g
         id="g18810"
         transform="translate(-344.24314,222.36824)">
        <g
           id="text10977"
           style="font-size:10.5833px;font-family:sans-serif;stroke-width:0.119161" />
      </g>
      <g
         aria-label="Coding"
         id="text7339"
         style="font-size:19.1928px;font-family:sans-serif;stroke-width:0.216099">
        <path
           d="m 43.50745,358.52575 q -0.599775,0 -0.899662,-0.70286 -0.262402,-0.59977 -0.487318,-0.73098 -0.196801,-0.10308 -0.974634,-0.10308 -1.358865,0 -3.017618,2.08047 -2.249156,2.7927 -2.249156,5.29489 0,1.20892 0.777833,2.08047 0.796576,0.89966 1.921154,0.89966 0.965263,0 1.939898,-0.49669 0.543546,-0.28114 1.668124,-1.10583 0.534174,-0.39361 0.805948,-0.39361 0.402973,0 0.674746,0.30926 0.271774,0.29989 0.271774,0.67475 0,0.42172 -0.356117,0.74035 -2.474072,2.19292 -5.004373,2.19292 -1.939897,0 -3.280019,-1.49006 -1.293265,-1.44321 -1.293265,-3.41122 0,-3.17694 2.661501,-6.51318 2.221042,-2.78334 4.47957,-2.78334 0.459203,0 0.824691,0.0469 0.365488,0.0375 0.646632,0.1312 0.328002,-0.47794 0.852805,-0.47794 0.646633,0 0.815319,0.8528 0.149944,0.75909 0.149944,1.86493 0,0.38423 -0.206172,0.67474 -0.253031,0.36549 -0.721605,0.36549 z"
           style="font-family:'Comic Sans MS'"
           id="path3634" />
        <path
           d="m 49.542686,369.59348 q -1.574409,0 -2.708359,-1.16207 -1.26515,-1.29326 -1.33075,-3.47682 -0.05623,-2.11795 1.068349,-3.72985 1.312008,-1.90241 3.654879,-1.90241 1.874297,0 2.83956,1.71498 0.768461,1.38698 0.740347,3.33625 -0.02811,2.08047 -1.087092,3.55179 -1.19955,1.66813 -3.176934,1.66813 z m 0.562289,-8.36874 q -1.377608,-0.009 -2.14607,1.31201 -0.609146,1.05898 -0.609146,2.41784 0,1.35887 0.740347,2.11796 0.618518,0.62789 1.45258,0.62789 0.974635,0 1.677496,-0.71224 0.796576,-0.7872 0.843434,-2.12732 0.131201,-3.62677 -1.958641,-3.63614 z"
           style="font-family:'Comic Sans MS'"
           id="path3636" />
        <path
           d="m 64.752606,360.76554 q -0.112458,1.37761 -0.112458,2.75521 0,3.12071 0.290516,4.71386 0.01874,0.1312 0.01874,0.21554 0,0.37486 -0.262401,0.61852 -0.262402,0.24366 -0.609147,0.24366 -0.581032,0 -0.852805,-0.84343 -0.674747,0.49669 -1.405723,0.74972 -0.721604,0.25303 -1.508809,0.25303 -1.939897,0 -3.214419,-1.29327 -1.312008,-1.32138 -1.312008,-3.39248 0,-2.50218 1.32138,-4.01099 1.33075,-1.50881 3.448706,-1.50881 1.087092,0 1.677496,0.33737 l 0.880919,0.64664 q 0.131201,-3.9454 0.309259,-5.31364 0.12183,-0.83406 0.852805,-0.83406 0.852805,0 0.852805,0.90904 0,1.30263 -0.374859,5.75409 z m -4.160939,0.24366 q -1.574409,0 -2.361614,0.93714 -0.787205,0.92778 -0.787205,2.80208 0,1.20892 0.852805,2.08047 0.862177,0.87155 2.014869,0.87155 0.787205,0 1.330751,-0.29052 0.318631,-0.16869 1.040235,-0.77783 0.140572,-0.12183 0.271773,-0.29052 l -0.02811,-1.62127 0.0094,-1.08709 0.01874,-1.10583 q -0.356116,-0.75909 -0.94652,-1.13395 -0.590403,-0.38423 -1.415094,-0.38423 z"
           style="font-family:'Comic Sans MS'"
           id="path3638" />
        <path
           d="m 69.185318,357.17626 q -0.449832,0 -0.777834,-0.31863 -0.328002,-0.31863 -0.328002,-0.76846 0,-0.44984 0.328002,-0.76847 0.328002,-0.31863 0.777834,-0.31863 0.449831,0 0.768461,0.31863 0.328002,0.31863 0.328002,0.76847 0,0.44983 -0.328002,0.76846 -0.31863,0.31863 -0.768461,0.31863 z m 0.421716,7.60964 q 0,0.56229 0.02811,1.68687 0.03749,1.11521 0.03749,1.6775 0,0.41234 -0.25303,0.67474 -0.25303,0.26241 -0.665376,0.26241 -0.402974,0 -0.665375,-0.26241 -0.25303,-0.2624 -0.25303,-0.67474 0,-0.56229 -0.03749,-1.6775 -0.02811,-1.12458 -0.02811,-1.68687 0,-0.88092 0.09372,-2.19292 0.09371,-1.32138 0.09371,-2.2023 0,-0.42172 0.25303,-0.68412 0.262402,-0.2624 0.665376,-0.2624 0.402973,0 0.656004,0.2624 0.262401,0.2624 0.262401,0.68412 0,0.88092 -0.09372,2.2023 -0.09372,1.312 -0.09372,2.19292 z"
           style="font-family:'Comic Sans MS'"
           id="path3640" />
        <path
           d="m 79.962527,369.70593 q -0.805948,0 -0.909034,-0.88092 l -0.262402,-2.05235 q -0.1312,-1.09647 -0.1312,-2.05236 0,-0.2624 0.02811,-0.89029 0.03749,-0.62789 0.03749,-0.89029 0,-2.02424 -0.749719,-2.02424 -1.049606,0 -2.005497,1.24641 -0.862177,1.13395 -1.349494,2.86767 -0.01874,0.36549 -0.08434,0.91841 -0.05623,0.46857 -0.05623,0.90903 0,0.28115 0.05623,0.84344 0.05623,0.56228 0.05623,0.84343 0,0.42172 -0.262401,0.68412 -0.25303,0.2624 -0.656004,0.2624 -0.412345,0 -0.665376,-0.2624 -0.25303,-0.2624 -0.25303,-0.68412 0,-0.28115 -0.0656,-0.84343 -0.05623,-0.56229 -0.05623,-0.84344 0,-0.96526 0.131201,-2.67087 0.140572,-1.71498 0.140572,-2.68025 0,-0.29988 -0.03749,-0.89029 -0.02811,-0.5904 -0.02811,-0.89029 0,-0.40297 0.262401,-0.656 0.271773,-0.2624 0.665376,-0.2624 0.862176,0 0.94652,1.21829 l 0.02811,1.09646 q 1.57441,-2.09921 3.233162,-2.09921 1.499438,0 2.089841,1.32138 0.402974,0.88092 0.44046,2.60527 v 0.94652 l -0.0094,0.87155 q 0,0.77783 0.196801,2.01487 0.206173,1.22766 0.206173,1.99613 0,0.41234 -0.271774,0.66537 -0.262401,0.2624 -0.665375,0.2624 z"
           style="font-family:'Comic Sans MS'"
           id="path3642" />
        <path
           d="m 90.533561,365.00145 -0.215545,3.14882 q -0.05623,1.87429 -0.384231,3.06447 -0.421716,1.51818 -1.349493,2.23979 -1.124578,0.87155 -3.251905,0.87155 -1.246408,0 -2.089842,-0.16869 -1.180807,-0.23429 -1.180807,-0.97464 0,-0.83406 0.81532,-0.83406 0.337373,0 1.124578,0.15932 0.787204,0.16868 1.743096,0.14994 1.799325,-0.0281 2.483443,-1.7431 0.449832,-1.14332 0.477946,-3.5143 -0.50606,0.93715 -1.208922,1.40572 -0.693489,0.46857 -1.593152,0.46857 -1.696239,0 -2.764588,-1.15269 -1.058978,-1.16206 -1.058978,-3.00824 0,-2.53031 1.45258,-4.0766 1.499438,-1.59315 4.085968,-1.59315 0.871548,0 1.461951,0.22491 0.590404,0.22492 0.899663,0.67475 1.002749,0.0281 1.002749,1.11521 0,0.66537 -0.196801,1.78058 -0.215545,1.29326 -0.25303,1.76184 z m -3.008247,-4.05785 q -1.780582,0 -2.755217,1.22766 -0.871548,1.10583 -0.871548,2.81145 0,1.35886 0.515432,2.04298 0.515432,0.68412 1.546295,0.68412 0.94652,0 1.836811,-1.06835 0.805948,-0.98401 0.918405,-1.94927 0.196802,-1.01212 0.421717,-3.17693 -0.374859,-0.29052 -0.777833,-0.43109 -0.402974,-0.14057 -0.834062,-0.14057 z"
           style="font-family:'Comic Sans MS'"
           id="path3644" />
      </g>
    </g>
    <g
       aria-label="01100011
01101111 
01100100 
01101001 
01101110
01100111"
       transform="scale(1.3404162,0.74603694)"
       id="text22194"
       style="font-size:12.1613px;line-height:1.25;stroke-width:0.304033">
      <path
         d="m 22.88935,156.24298 q -0.926349,0 -1.395462,0.91448 -0.463174,0.90853 -0.463174,2.73748 0,1.823 0.463174,2.73748 0.469113,0.90853 1.395462,0.90853 0.932287,0 1.395462,-0.90853 0.469112,-0.91448 0.469112,-2.73748 0,-1.82895 -0.469112,-2.73748 -0.463175,-0.91448 -1.395462,-0.91448 z m 0,-0.9501 q 1.490472,0 2.274306,1.18169 0.789772,1.17575 0.789772,3.42037 0,2.23867 -0.789772,3.42036 -0.783834,1.17575 -2.274306,1.17575 -1.490472,0 -2.280244,-1.17575 -0.783833,-1.18169 -0.783833,-3.42036 0,-2.24462 0.783833,-3.42037 0.789772,-1.18169 2.280244,-1.18169 z"
         id="path3647" />
      <path
         d="m 28.2693,163.30936 h 1.959585 v -6.76353 l -2.131791,0.42755 v -1.09262 l 2.119914,-0.42755 h 1.199504 v 7.85615 h 1.959584 v 1.00949 H 28.2693 Z"
         id="path3649" />
      <path
         d="m 36.00669,163.30936 h 1.959584 v -6.76353 l -2.13179,0.42755 v -1.09262 l 2.119914,-0.42755 h 1.199503 v 7.85615 h 1.959585 v 1.00949 H 36.00669 Z"
         id="path3651" />
      <path
         d="m 46.10152,156.24298 q -0.926349,0 -1.395462,0.91448 -0.463174,0.90853 -0.463174,2.73748 0,1.823 0.463174,2.73748 0.469113,0.90853 1.395462,0.90853 0.932287,0 1.395461,-0.90853 0.469113,-0.91448 0.469113,-2.73748 0,-1.82895 -0.469113,-2.73748 -0.463174,-0.91448 -1.395461,-0.91448 z m 0,-0.9501 q 1.490471,0 2.274305,1.18169 0.789772,1.17575 0.789772,3.42037 0,2.23867 -0.789772,3.42036 -0.783834,1.17575 -2.274305,1.17575 -1.490472,0 -2.280244,-1.17575 -0.783834,-1.18169 -0.783834,-3.42036 0,-2.24462 0.783834,-3.42037 0.789772,-1.18169 2.280244,-1.18169 z"
         id="path3653" />
      <path
         d="m 53.838908,156.24298 q -0.926349,0 -1.395461,0.91448 -0.463175,0.90853 -0.463175,2.73748 0,1.823 0.463175,2.73748 0.469112,0.90853 1.395461,0.90853 0.932287,0 1.395462,-0.90853 0.469113,-0.91448 0.469113,-2.73748 0,-1.82895 -0.469113,-2.73748 -0.463175,-0.91448 -1.395462,-0.91448 z m 0,-0.9501 q 1.490472,0 2.274306,1.18169 0.789772,1.17575 0.789772,3.42037 0,2.23867 -0.789772,3.42036 -0.783834,1.17575 -2.274306,1.17575 -1.490471,0 -2.280243,-1.17575 -0.783834,-1.18169 -0.783834,-3.42036 0,-2.24462 0.783834,-3.42037 0.789772,-1.18169 2.280243,-1.18169 z"
         id="path3655" />
      <path
         d="m 61.576297,156.24298 q -0.926349,0 -1.395462,0.91448 -0.463174,0.90853 -0.463174,2.73748 0,1.823 0.463174,2.73748 0.469113,0.90853 1.395462,0.90853 0.932287,0 1.395462,-0.90853 0.469112,-0.91448 0.469112,-2.73748 0,-1.82895 -0.469112,-2.73748 -0.463175,-0.91448 -1.395462,-0.91448 z m 0,-0.9501 q 1.490472,0 2.274305,1.18169 0.789772,1.17575 0.789772,3.42037 0,2.23867 -0.789772,3.42036 -0.783833,1.17575 -2.274305,1.17575 -1.490472,0 -2.280244,-1.17575 -0.783834,-1.18169 -0.783834,-3.42036 0,-2.24462 0.783834,-3.42037 0.789772,-1.18169 2.280244,-1.18169 z"
         id="path3657" />
      <path
         d="m 66.95625,163.30936 h 1.959584 v -6.76353 l -2.13179,0.42755 v -1.09262 l 2.119914,-0.42755 h 1.199503 v 7.85615 h 1.959585 v 1.00949 H 66.95625 Z"
         id="path3659" />
      <path
         d="m 74.693639,163.30936 h 1.959584 v -6.76353 l -2.13179,0.42755 v -1.09262 l 2.119914,-0.42755 h 1.199503 v 7.85615 h 1.959584 v 1.00949 h -5.106795 z"
         id="path3661" />
      <path
         d="m 22.88935,171.44461 q -0.926349,0 -1.395462,0.91447 -0.463174,0.90854 -0.463174,2.73748 0,1.82301 0.463174,2.73748 0.469113,0.90854 1.395462,0.90854 0.932287,0 1.395462,-0.90854 0.469112,-0.91447 0.469112,-2.73748 0,-1.82894 -0.469112,-2.73748 -0.463175,-0.91447 -1.395462,-0.91447 z m 0,-0.9501 q 1.490472,0 2.274306,1.18169 0.789772,1.17575 0.789772,3.42036 0,2.23868 -0.789772,3.42037 -0.783834,1.17575 -2.274306,1.17575 -1.490472,0 -2.280244,-1.17575 -0.783833,-1.18169 -0.783833,-3.42037 0,-2.24461 0.783833,-3.42036 0.789772,-1.18169 2.280244,-1.18169 z"
         id="path3663" />
      <path
         d="m 28.2693,178.51099 h 1.959585 v -6.76354 l -2.131791,0.42755 v -1.09262 l 2.119914,-0.42754 h 1.199504 v 7.85615 h 1.959584 v 1.00948 H 28.2693 Z"
         id="path3665" />
      <path
         d="m 36.00669,178.51099 h 1.959584 v -6.76354 l -2.13179,0.42755 v -1.09262 l 2.119914,-0.42754 h 1.199503 v 7.85615 h 1.959585 v 1.00948 H 36.00669 Z"
         id="path3667" />
      <path
         d="m 46.10152,171.44461 q -0.926349,0 -1.395462,0.91447 -0.463174,0.90854 -0.463174,2.73748 0,1.82301 0.463174,2.73748 0.469113,0.90854 1.395462,0.90854 0.932287,0 1.395461,-0.90854 0.469113,-0.91447 0.469113,-2.73748 0,-1.82894 -0.469113,-2.73748 -0.463174,-0.91447 -1.395461,-0.91447 z m 0,-0.9501 q 1.490471,0 2.274305,1.18169 0.789772,1.17575 0.789772,3.42036 0,2.23868 -0.789772,3.42037 -0.783834,1.17575 -2.274305,1.17575 -1.490472,0 -2.280244,-1.17575 -0.783834,-1.18169 -0.783834,-3.42037 0,-2.24461 0.783834,-3.42036 0.789772,-1.18169 2.280244,-1.18169 z"
         id="path3669" />
      <path
         d="m 51.481469,178.51099 h 1.959584 v -6.76354 l -2.13179,0.42755 v -1.09262 l 2.119914,-0.42754 h 1.199503 v 7.85615 h 1.959585 v 1.00948 h -5.106796 z"
         id="path3671" />
      <path
         d="m 59.218857,178.51099 h 1.959585 v -6.76354 l -2.13179,0.42755 v -1.09262 l 2.119914,-0.42754 h 1.199503 v 7.85615 h 1.959584 v 1.00948 h -5.106796 z"
         id="path3673" />
      <path
         d="m 66.95625,178.51099 h 1.959584 v -6.76354 l -2.13179,0.42755 v -1.09262 l 2.119914,-0.42754 h 1.199503 v 7.85615 h 1.959585 v 1.00948 H 66.95625 Z"
         id="path3675" />
      <path
         d="m 74.693639,178.51099 h 1.959584 v -6.76354 l -2.13179,0.42755 v -1.09262 l 2.119914,-0.42754 h 1.199503 v 7.85615 h 1.959584 v 1.00948 h -5.106795 z"
         id="path3677" />
      <path
         d="m 22.88935,186.64623 q -0.926349,0 -1.395462,0.91448 -0.463174,0.90853 -0.463174,2.73748 0,1.823 0.463174,2.73748 0.469113,0.90853 1.395462,0.90853 0.932287,0 1.395462,-0.90853 0.469112,-0.91448 0.469112,-2.73748 0,-1.82895 -0.469112,-2.73748 -0.463175,-0.91448 -1.395462,-0.91448 z m 0,-0.9501 q 1.490472,0 2.274306,1.18169 0.789772,1.17575 0.789772,3.42037 0,2.23867 -0.789772,3.42036 -0.783834,1.17575 -2.274306,1.17575 -1.490472,0 -2.280244,-1.17575 -0.783833,-1.18169 -0.783833,-3.42036 0,-2.24462 0.783833,-3.42037 0.789772,-1.18169 2.280244,-1.18169 z"
         id="path3679" />
      <path
         d="m 28.2693,193.71261 h 1.959585 v -6.76353 l -2.131791,0.42754 v -1.09261 l 2.119914,-0.42755 h 1.199504 v 7.85615 h 1.959584 v 1.00949 H 28.2693 Z"
         id="path3681" />
      <path
         d="m 36.00669,193.71261 h 1.959584 v -6.76353 l -2.13179,0.42754 v -1.09261 l 2.119914,-0.42755 h 1.199503 v 7.85615 h 1.959585 v 1.00949 H 36.00669 Z"
         id="path3683" />
      <path
         d="m 46.10152,186.64623 q -0.926349,0 -1.395462,0.91448 -0.463174,0.90853 -0.463174,2.73748 0,1.823 0.463174,2.73748 0.469113,0.90853 1.395462,0.90853 0.932287,0 1.395461,-0.90853 0.469113,-0.91448 0.469113,-2.73748 0,-1.82895 -0.469113,-2.73748 -0.463174,-0.91448 -1.395461,-0.91448 z m 0,-0.9501 q 1.490471,0 2.274305,1.18169 0.789772,1.17575 0.789772,3.42037 0,2.23867 -0.789772,3.42036 -0.783834,1.17575 -2.274305,1.17575 -1.490472,0 -2.280244,-1.17575 -0.783834,-1.18169 -0.783834,-3.42036 0,-2.24462 0.783834,-3.42037 0.789772,-1.18169 2.280244,-1.18169 z"
         id="path3685" />
      <path
         d="m 53.838908,186.64623 q -0.926349,0 -1.395461,0.91448 -0.463175,0.90853 -0.463175,2.73748 0,1.823 0.463175,2.73748 0.469112,0.90853 1.395461,0.90853 0.932287,0 1.395462,-0.90853 0.469113,-0.91448 0.469113,-2.73748 0,-1.82895 -0.469113,-2.73748 -0.463175,-0.91448 -1.395462,-0.91448 z m 0,-0.9501 q 1.490472,0 2.274306,1.18169 0.789772,1.17575 0.789772,3.42037 0,2.23867 -0.789772,3.42036 -0.783834,1.17575 -2.274306,1.17575 -1.490471,0 -2.280243,-1.17575 -0.783834,-1.18169 -0.783834,-3.42036 0,-2.24462 0.783834,-3.42037 0.789772,-1.18169 2.280243,-1.18169 z"
         id="path3687" />
      <path
         d="m 59.218857,193.71261 h 1.959585 v -6.76353 l -2.13179,0.42754 v -1.09261 l 2.119914,-0.42755 h 1.199503 v 7.85615 h 1.959584 v 1.00949 h -5.106796 z"
         id="path3689" />
      <path
         d="m 69.313689,186.64623 q -0.926349,0 -1.395461,0.91448 -0.463175,0.90853 -0.463175,2.73748 0,1.823 0.463175,2.73748 0.469112,0.90853 1.395461,0.90853 0.932287,0 1.395462,-0.90853 0.469113,-0.91448 0.469113,-2.73748 0,-1.82895 -0.469113,-2.73748 -0.463175,-0.91448 -1.395462,-0.91448 z m 0,-0.9501 q 1.490472,0 2.274306,1.18169 0.789772,1.17575 0.789772,3.42037 0,2.23867 -0.789772,3.42036 -0.783834,1.17575 -2.274306,1.17575 -1.490471,0 -2.280243,-1.17575 -0.783834,-1.18169 -0.783834,-3.42036 0,-2.24462 0.783834,-3.42037 0.789772,-1.18169 2.280243,-1.18169 z"
         id="path3691" />
      <path
         d="m 77.051078,186.64623 q -0.926349,0 -1.395462,0.91448 -0.463174,0.90853 -0.463174,2.73748 0,1.823 0.463174,2.73748 0.469113,0.90853 1.395462,0.90853 0.932287,0 1.395462,-0.90853 0.469112,-0.91448 0.469112,-2.73748 0,-1.82895 -0.469112,-2.73748 -0.463175,-0.91448 -1.395462,-0.91448 z m 0,-0.9501 q 1.490472,0 2.274306,1.18169 0.789771,1.17575 0.789771,3.42037 0,2.23867 -0.789771,3.42036 -0.783834,1.17575 -2.274306,1.17575 -1.490472,0 -2.280244,-1.17575 -0.783834,-1.18169 -0.783834,-3.42036 0,-2.24462 0.783834,-3.42037 0.789772,-1.18169 2.280244,-1.18169 z"
         id="path3693" />
      <path
         d="m 22.88935,201.84786 q -0.926349,0 -1.395462,0.91447 -0.463174,0.90854 -0.463174,2.73748 0,1.82301 0.463174,2.73748 0.469113,0.90854 1.395462,0.90854 0.932287,0 1.395462,-0.90854 0.469112,-0.91447 0.469112,-2.73748 0,-1.82894 -0.469112,-2.73748 -0.463175,-0.91447 -1.395462,-0.91447 z m 0,-0.9501 q 1.490472,0 2.274306,1.18169 0.789772,1.17575 0.789772,3.42036 0,2.23868 -0.789772,3.42037 -0.783834,1.17575 -2.274306,1.17575 -1.490472,0 -2.280244,-1.17575 -0.783833,-1.18169 -0.783833,-3.42037 0,-2.24461 0.783833,-3.42036 0.789772,-1.18169 2.280244,-1.18169 z"
         id="path3695" />
      <path
         d="m 28.2693,208.91424 h 1.959585 v -6.76354 l -2.131791,0.42755 v -1.09262 l 2.119914,-0.42754 h 1.199504 v 7.85615 h 1.959584 v 1.00948 H 28.2693 Z"
         id="path3697" />
      <path
         d="m 36.00669,208.91424 h 1.959584 v -6.76354 l -2.13179,0.42755 v -1.09262 l 2.119914,-0.42754 h 1.199503 v 7.85615 h 1.959585 v 1.00948 H 36.00669 Z"
         id="path3699" />
      <path
         d="m 46.10152,201.84786 q -0.926349,0 -1.395462,0.91447 -0.463174,0.90854 -0.463174,2.73748 0,1.82301 0.463174,2.73748 0.469113,0.90854 1.395462,0.90854 0.932287,0 1.395461,-0.90854 0.469113,-0.91447 0.469113,-2.73748 0,-1.82894 -0.469113,-2.73748 -0.463174,-0.91447 -1.395461,-0.91447 z m 0,-0.9501 q 1.490471,0 2.274305,1.18169 0.789772,1.17575 0.789772,3.42036 0,2.23868 -0.789772,3.42037 -0.783834,1.17575 -2.274305,1.17575 -1.490472,0 -2.280244,-1.17575 -0.783834,-1.18169 -0.783834,-3.42037 0,-2.24461 0.783834,-3.42036 0.789772,-1.18169 2.280244,-1.18169 z"
         id="path3701" />
      <path
         d="m 51.481469,208.91424 h 1.959584 v -6.76354 l -2.13179,0.42755 v -1.09262 l 2.119914,-0.42754 h 1.199503 v 7.85615 h 1.959585 v 1.00948 h -5.106796 z"
         id="path3703" />
      <path
         d="m 61.576297,201.84786 q -0.926349,0 -1.395462,0.91447 -0.463174,0.90854 -0.463174,2.73748 0,1.82301 0.463174,2.73748 0.469113,0.90854 1.395462,0.90854 0.932287,0 1.395462,-0.90854 0.469112,-0.91447 0.469112,-2.73748 0,-1.82894 -0.469112,-2.73748 -0.463175,-0.91447 -1.395462,-0.91447 z m 0,-0.9501 q 1.490472,0 2.274305,1.18169 0.789772,1.17575 0.789772,3.42036 0,2.23868 -0.789772,3.42037 -0.783833,1.17575 -2.274305,1.17575 -1.490472,0 -2.280244,-1.17575 -0.783834,-1.18169 -0.783834,-3.42037 0,-2.24461 0.783834,-3.42036 0.789772,-1.18169 2.280244,-1.18169 z"
         id="path3705" />
      <path
         d="m 69.313689,201.84786 q -0.926349,0 -1.395461,0.91447 -0.463175,0.90854 -0.463175,2.73748 0,1.82301 0.463175,2.73748 0.469112,0.90854 1.395461,0.90854 0.932287,0 1.395462,-0.90854 0.469113,-0.91447 0.469113,-2.73748 0,-1.82894 -0.469113,-2.73748 -0.463175,-0.91447 -1.395462,-0.91447 z m 0,-0.9501 q 1.490472,0 2.274306,1.18169 0.789772,1.17575 0.789772,3.42036 0,2.23868 -0.789772,3.42037 -0.783834,1.17575 -2.274306,1.17575 -1.490471,0 -2.280243,-1.17575 -0.783834,-1.18169 -0.783834,-3.42037 0,-2.24461 0.783834,-3.42036 0.789772,-1.18169 2.280243,-1.18169 z"
         id="path3707" />
      <path
         d="m 74.693639,208.91424 h 1.959584 v -6.76354 l -2.13179,0.42755 v -1.09262 l 2.119914,-0.42754 h 1.199503 v 7.85615 h 1.959584 v 1.00948 h -5.106795 z"
         id="path3709" />
      <path
         d="m 22.88935,217.04948 q -0.926349,0 -1.395462,0.91448 -0.463174,0.90853 -0.463174,2.73748 0,1.823 0.463174,2.73748 0.469113,0.90853 1.395462,0.90853 0.932287,0 1.395462,-0.90853 0.469112,-0.91448 0.469112,-2.73748 0,-1.82895 -0.469112,-2.73748 -0.463175,-0.91448 -1.395462,-0.91448 z m 0,-0.9501 q 1.490472,0 2.274306,1.18169 0.789772,1.17575 0.789772,3.42037 0,2.23867 -0.789772,3.42036 -0.783834,1.17575 -2.274306,1.17575 -1.490472,0 -2.280244,-1.17575 -0.783833,-1.18169 -0.783833,-3.42036 0,-2.24462 0.783833,-3.42037 0.789772,-1.18169 2.280244,-1.18169 z"
         id="path3711" />
      <path
         d="m 28.2693,224.11586 h 1.959585 v -6.76353 l -2.131791,0.42754 v -1.09261 l 2.119914,-0.42755 h 1.199504 v 7.85615 h 1.959584 v 1.00949 H 28.2693 Z"
         id="path3713" />
      <path
         d="m 36.00669,224.11586 h 1.959584 v -6.76353 l -2.13179,0.42754 v -1.09261 l 2.119914,-0.42755 h 1.199503 v 7.85615 h 1.959585 v 1.00949 H 36.00669 Z"
         id="path3715" />
      <path
         d="m 46.10152,217.04948 q -0.926349,0 -1.395462,0.91448 -0.463174,0.90853 -0.463174,2.73748 0,1.823 0.463174,2.73748 0.469113,0.90853 1.395462,0.90853 0.932287,0 1.395461,-0.90853 0.469113,-0.91448 0.469113,-2.73748 0,-1.82895 -0.469113,-2.73748 -0.463174,-0.91448 -1.395461,-0.91448 z m 0,-0.9501 q 1.490471,0 2.274305,1.18169 0.789772,1.17575 0.789772,3.42037 0,2.23867 -0.789772,3.42036 -0.783834,1.17575 -2.274305,1.17575 -1.490472,0 -2.280244,-1.17575 -0.783834,-1.18169 -0.783834,-3.42036 0,-2.24462 0.783834,-3.42037 0.789772,-1.18169 2.280244,-1.18169 z"
         id="path3717" />
      <path
         d="m 51.481469,224.11586 h 1.959584 v -6.76353 l -2.13179,0.42754 v -1.09261 l 2.119914,-0.42755 h 1.199503 v 7.85615 h 1.959585 v 1.00949 h -5.106796 z"
         id="path3719" />
      <path
         d="m 59.218857,224.11586 h 1.959585 v -6.76353 l -2.13179,0.42754 v -1.09261 l 2.119914,-0.42755 h 1.199503 v 7.85615 h 1.959584 v 1.00949 h -5.106796 z"
         id="path3721" />
      <path
         d="m 66.95625,224.11586 h 1.959584 v -6.76353 l -2.13179,0.42754 v -1.09261 l 2.119914,-0.42755 h 1.199503 v 7.85615 h 1.959585 v 1.00949 H 66.95625 Z"
         id="path3723" />
      <path
         d="m 77.051078,217.04948 q -0.926349,0 -1.395462,0.91448 -0.463174,0.90853 -0.463174,2.73748 0,1.823 0.463174,2.73748 0.469113,0.90853 1.395462,0.90853 0.932287,0 1.395462,-0.90853 0.469112,-0.91448 0.469112,-2.73748 0,-1.82895 -0.469112,-2.73748 -0.463175,-0.91448 -1.395462,-0.91448 z m 0,-0.9501 q 1.490472,0 2.274306,1.18169 0.789771,1.17575 0.789771,3.42037 0,2.23867 -0.789771,3.42036 -0.783834,1.17575 -2.274306,1.17575 -1.490472,0 -2.280244,-1.17575 -0.783834,-1.18169 -0.783834,-3.42036 0,-2.24462 0.783834,-3.42037 0.789772,-1.18169 2.280244,-1.18169 z"
         id="path3725" />
      <path
         d="m 22.88935,232.25111 q -0.926349,0 -1.395462,0.91447 -0.463174,0.90854 -0.463174,2.73748 0,1.82301 0.463174,2.73748 0.469113,0.90854 1.395462,0.90854 0.932287,0 1.395462,-0.90854 0.469112,-0.91447 0.469112,-2.73748 0,-1.82894 -0.469112,-2.73748 -0.463175,-0.91447 -1.395462,-0.91447 z m 0,-0.9501 q 1.490472,0 2.274306,1.18168 0.789772,1.17576 0.789772,3.42037 0,2.23868 -0.789772,3.42037 -0.783834,1.17575 -2.274306,1.17575 -1.490472,0 -2.280244,-1.17575 -0.783833,-1.18169 -0.783833,-3.42037 0,-2.24461 0.783833,-3.42037 0.789772,-1.18168 2.280244,-1.18168 z"
         id="path3727" />
      <path
         d="m 28.2693,239.31749 h 1.959585 v -6.76354 l -2.131791,0.42755 v -1.09262 l 2.119914,-0.42754 h 1.199504 v 7.85615 h 1.959584 v 1.00948 H 28.2693 Z"
         id="path3729" />
      <path
         d="m 36.00669,239.31749 h 1.959584 v -6.76354 l -2.13179,0.42755 v -1.09262 l 2.119914,-0.42754 h 1.199503 v 7.85615 h 1.959585 v 1.00948 H 36.00669 Z"
         id="path3731" />
      <path
         d="m 46.10152,232.25111 q -0.926349,0 -1.395462,0.91447 -0.463174,0.90854 -0.463174,2.73748 0,1.82301 0.463174,2.73748 0.469113,0.90854 1.395462,0.90854 0.932287,0 1.395461,-0.90854 0.469113,-0.91447 0.469113,-2.73748 0,-1.82894 -0.469113,-2.73748 -0.463174,-0.91447 -1.395461,-0.91447 z m 0,-0.9501 q 1.490471,0 2.274305,1.18168 0.789772,1.17576 0.789772,3.42037 0,2.23868 -0.789772,3.42037 -0.783834,1.17575 -2.274305,1.17575 -1.490472,0 -2.280244,-1.17575 -0.783834,-1.18169 -0.783834,-3.42037 0,-2.24461 0.783834,-3.42037 0.789772,-1.18168 2.280244,-1.18168 z"
         id="path3733" />
      <path
         d="m 53.838908,232.25111 q -0.926349,0 -1.395461,0.91447 -0.463175,0.90854 -0.463175,2.73748 0,1.82301 0.463175,2.73748 0.469112,0.90854 1.395461,0.90854 0.932287,0 1.395462,-0.90854 0.469113,-0.91447 0.469113,-2.73748 0,-1.82894 -0.469113,-2.73748 -0.463175,-0.91447 -1.395462,-0.91447 z m 0,-0.9501 q 1.490472,0 2.274306,1.18168 0.789772,1.17576 0.789772,3.42037 0,2.23868 -0.789772,3.42037 -0.783834,1.17575 -2.274306,1.17575 -1.490471,0 -2.280243,-1.17575 -0.783834,-1.18169 -0.783834,-3.42037 0,-2.24461 0.783834,-3.42037 0.789772,-1.18168 2.280243,-1.18168 z"
         id="path3735" />
      <path
         d="m 59.218857,239.31749 h 1.959585 v -6.76354 l -2.13179,0.42755 v -1.09262 l 2.119914,-0.42754 h 1.199503 v 7.85615 h 1.959584 v 1.00948 h -5.106796 z"
         id="path3737" />
      <path
         d="m 66.95625,239.31749 h 1.959584 v -6.76354 l -2.13179,0.42755 v -1.09262 l 2.119914,-0.42754 h 1.199503 v 7.85615 h 1.959585 v 1.00948 H 66.95625 Z"
         id="path3739" />
      <path
         d="m 74.693639,239.31749 h 1.959584 v -6.76354 l -2.13179,0.42755 v -1.09262 l 2.119914,-0.42754 h 1.199503 v 7.85615 h 1.959584 v 1.00948 h -5.106795 z"
         id="path3741" />
    </g>
  </g>
</svg>
